<svg width="772" height="508" viewBox="0 0 772 508" fill="none" xmlns="http://www.w3.org/2000/svg">
<path fill-rule="evenodd" clip-rule="evenodd" d="M361.324 497.389C361.454 497.176 361.582 496.962 361.707 496.746C391.385 445.342 257.333 312.386 62.2942 199.78C61.7564 199.47 61.2187 199.16 60.6811 198.85L6.39376 292.879C6.37606 292.909 6.35847 292.939 6.34101 292.969C3.26291 298.301 5.08959 305.118 10.421 308.196L345.876 501.871C351.207 504.949 358.025 503.122 361.103 497.791C361.18 497.658 361.253 497.524 361.324 497.389Z" fill="#007AFF"/>
<path fill-rule="evenodd" clip-rule="evenodd" d="M410.674 497.385C410.545 497.174 410.418 496.96 410.294 496.746C380.616 445.342 514.668 312.386 709.706 199.78C710.244 199.47 710.782 199.16 711.319 198.85L765.627 292.914C765.638 292.932 765.649 292.951 765.659 292.969C768.737 298.301 766.911 305.118 761.579 308.196L426.124 501.871C420.793 504.949 413.976 503.122 410.898 497.791C410.82 497.656 410.746 497.521 410.674 497.385Z" fill="#007AFF"/>
<path fill-rule="evenodd" clip-rule="evenodd" d="M103.646 206.339C256.449 300.109 364.233 403.207 370.941 460.032C397.705 361.998 305.629 221.775 148.884 131.278C148.408 131.004 147.933 130.73 147.457 130.457L103.646 206.339ZM354.991 488.391L358.066 490.166C358.434 489.556 358.798 488.941 359.156 488.323C357.797 488.604 356.384 488.633 354.991 488.391Z" fill="#E5F2FF"/>
<path fill-rule="evenodd" clip-rule="evenodd" d="M666.399 206.339C513.597 300.109 405.813 403.206 399.104 460.032C372.341 361.997 464.417 221.775 621.161 131.278C621.637 131.004 622.113 130.73 622.588 130.457L666.399 206.339ZM415.054 488.391L411.979 490.166C411.611 489.556 411.248 488.941 410.89 488.323C412.248 488.604 413.661 488.633 415.054 488.391Z" fill="#E5F2FF"/>
<circle cx="388.707" cy="199.041" r="40.7229" fill="#131313"/>
<mask id="path-6-outside-1_69_522" maskUnits="userSpaceOnUse" x="187.664" y="0" width="398" height="185" fill="black">
<rect fill="white" x="187.664" width="398" height="185"/>
<path fill-rule="evenodd" clip-rule="evenodd" d="M387.635 66.156C454.273 66.156 510.691 109.913 529.724 170.263C530.301 172.092 529.688 174.09 528.231 175.337V175.337C525.477 177.697 521.169 176.362 520.069 172.907C502.201 116.799 449.665 76.156 387.635 76.156C324.342 76.156 270.932 118.472 254.153 176.355C253.123 179.909 248.704 181.32 245.918 178.887V178.887C244.523 177.669 243.919 175.753 244.43 173.973C262.283 111.715 319.639 66.156 387.635 66.156ZM387.635 14C469.867 14 540.573 63.353 571.747 134.055C573.026 136.957 576.633 138.035 579.249 136.241V136.241C581.185 134.914 581.947 132.403 581.002 130.254C548.33 55.914 474.045 4 387.635 4C300.125 4 225.05 57.2446 193.04 133.105C192.144 135.228 192.898 137.684 194.788 139.001V139.001C197.428 140.842 201.097 139.73 202.351 136.767C232.898 64.6184 304.355 14 387.635 14Z"/>
</mask>
<path fill-rule="evenodd" clip-rule="evenodd" d="M387.635 66.156C454.273 66.156 510.691 109.913 529.724 170.263C530.301 172.092 529.688 174.09 528.231 175.337V175.337C525.477 177.697 521.169 176.362 520.069 172.907C502.201 116.799 449.665 76.156 387.635 76.156C324.342 76.156 270.932 118.472 254.153 176.355C253.123 179.909 248.704 181.32 245.918 178.887V178.887C244.523 177.669 243.919 175.753 244.43 173.973C262.283 111.715 319.639 66.156 387.635 66.156ZM387.635 14C469.867 14 540.573 63.353 571.747 134.055C573.026 136.957 576.633 138.035 579.249 136.241V136.241C581.185 134.914 581.947 132.403 581.002 130.254C548.33 55.914 474.045 4 387.635 4C300.125 4 225.05 57.2446 193.04 133.105C192.144 135.228 192.898 137.684 194.788 139.001V139.001C197.428 140.842 201.097 139.73 202.351 136.767C232.898 64.6184 304.355 14 387.635 14Z" fill="#FFC962"/>
<path d="M581.002 130.254L584.664 128.645L581.002 130.254ZM571.747 134.055L575.407 132.441L571.747 134.055ZM254.153 176.355L250.311 175.242L254.153 176.355ZM520.069 172.907L523.88 171.693L520.069 172.907ZM244.43 173.973L248.275 175.076L244.43 173.973ZM529.724 170.263L533.539 169.06L529.724 170.263ZM533.539 169.06C513.996 107.094 456.069 62.156 387.635 62.156V70.156C452.478 70.156 507.386 112.733 525.909 171.466L533.539 169.06ZM387.635 80.156C447.873 80.156 498.903 119.624 516.257 174.12L523.88 171.693C505.5 113.974 451.456 72.156 387.635 72.156V80.156ZM257.995 177.469C274.291 121.249 326.17 80.156 387.635 80.156V72.156C322.514 72.156 267.572 115.694 250.311 175.242L257.995 177.469ZM387.635 62.156C317.807 62.156 258.917 108.943 240.585 172.87L248.275 175.076C265.65 114.487 321.471 70.156 387.635 70.156V62.156ZM575.407 132.441C543.616 60.3415 471.509 10 387.635 10V18C468.226 18 537.529 66.3645 568.087 135.669L575.407 132.441ZM387.635 8C472.402 8 545.284 58.9235 577.341 131.864L584.664 128.645C551.377 52.9045 475.689 0 387.635 0V8ZM196.725 134.66C228.132 60.2291 301.789 8 387.635 8V0C298.46 0 221.968 54.2602 189.355 131.55L196.725 134.66ZM387.635 10C302.693 10 229.819 61.6319 198.668 135.208L206.035 138.327C235.977 67.6049 306.018 18 387.635 18V10ZM189.355 131.55C187.699 135.474 189.117 139.923 192.501 142.283L197.076 135.72C196.68 135.444 196.59 134.982 196.725 134.66L189.355 131.55ZM581.511 139.54C584.975 137.165 586.41 132.616 584.664 128.645L577.341 131.864C577.484 132.19 577.394 132.663 576.987 132.943L581.511 139.54ZM568.087 135.669C570.348 140.797 576.77 142.792 581.511 139.54L576.987 132.943C576.496 133.279 575.705 133.117 575.407 132.441L568.087 135.669ZM250.311 175.242C250.198 175.63 249.905 175.922 249.504 176.047C249.117 176.168 248.795 176.088 248.549 175.874L243.287 181.899C248.4 186.365 256.197 183.672 257.995 177.469L250.311 175.242ZM525.629 172.3C525.382 172.511 525.063 172.587 524.686 172.473C524.296 172.356 524.002 172.075 523.88 171.693L516.257 174.12C518.179 180.155 525.787 182.698 530.833 178.375L525.629 172.3ZM248.549 175.874C248.273 175.632 248.21 175.301 248.275 175.076L240.585 172.87C239.629 176.205 240.774 179.705 243.287 181.899L248.549 175.874ZM192.501 142.283C197.286 145.619 203.818 143.562 206.035 138.327L198.668 135.208C198.376 135.898 197.569 136.064 197.076 135.72L192.501 142.283ZM525.909 171.466C525.983 171.701 525.921 172.049 525.629 172.3L530.833 178.375C533.454 176.13 534.618 172.484 533.539 169.06L525.909 171.466Z" fill="#FFC962" mask="url(#path-6-outside-1_69_522)"/>
</svg>
