<svg width="16" height="17" viewBox="0 0 16 17" fill="none" xmlns="http://www.w3.org/2000/svg">
<path d="M1 4.66498L8.12653 7.83236L8.60892 6.74694L1.48239 3.57959L1 4.66498ZM8.9616 15.9998V7.28963H7.77385V15.9998H8.9616ZM8.60892 7.83236L15.7354 4.66498L15.2531 3.57959L8.12653 6.74694L8.60892 7.83236Z" fill="#007AFF"/>
<path d="M1.24121 12.524V4.43129C1.24121 4.24354 1.35178 4.0734 1.52336 3.99714L8.17477 1.04095C8.29766 0.986351 8.43782 0.986351 8.56071 1.04095L15.2121 3.99714C15.3837 4.0734 15.4943 4.24354 15.4943 4.43129V12.524C15.4943 12.7118 15.3837 12.8819 15.2121 12.9582L8.56071 15.9143C8.43782 15.9689 8.29766 15.9689 8.17477 15.9143L1.52336 12.9582C1.35178 12.8819 1.24121 12.7118 1.24121 12.524Z" stroke="#007AFF" stroke-linecap="round" stroke-linejoin="round"/>
<path d="M4.80444 2.53906L11.6488 5.58101C11.8204 5.65727 11.931 5.82741 11.931 6.01516V8.87376" stroke="#007AFF" stroke-linecap="round" stroke-linejoin="round"/>
</svg>
