<svg width="25" height="24" viewBox="0 0 25 24" fill="none" xmlns="http://www.w3.org/2000/svg">
<path d="M8.49117 22.6279H5.99411C3.23594 22.6279 1 20.3919 1 17.6338V9.77755C1 8.0312 1.91219 6.41171 3.40565 5.50658L9.64829 1.72316C11.2393 0.758947 13.2342 0.758947 14.8252 1.72316L21.0678 5.50658C22.5613 6.41171 23.4735 8.0312 23.4735 9.77755V17.6338C23.4735 20.3919 21.2375 22.6279 18.4794 22.6279H15.9823M8.49117 22.6279V17.6338C8.49117 15.5651 10.1681 13.8882 12.2368 13.8882C14.3054 13.8882 15.9823 15.5651 15.9823 17.6338V22.6279M8.49117 22.6279H15.9823" stroke="#007AFF" stroke-width="2" stroke-linecap="round" stroke-linejoin="round"/>
</svg>
