<svg width="24" height="24" viewBox="0 0 24 24" fill="none" xmlns="http://www.w3.org/2000/svg">
<path d="M6.40698 18.3023V17.2209C6.40698 14.2348 8.82777 11.814 11.814 11.814C14.8001 11.814 17.2209 14.2348 17.2209 17.2209V18.3023" stroke="#007AFF" stroke-width="2" stroke-linecap="round"/>
<path d="M11.814 11.8141C13.6058 11.8141 15.0582 10.3616 15.0582 8.56987C15.0582 6.77816 13.6058 5.32568 11.814 5.32568C10.0222 5.32568 8.56982 6.77816 8.56982 8.56987C8.56982 10.3616 10.0222 11.8141 11.814 11.8141Z" stroke="#007AFF" stroke-width="2" stroke-linecap="round" stroke-linejoin="round"/>
<path d="M11.814 22.6279C17.7863 22.6279 22.6279 17.7863 22.6279 11.814C22.6279 5.84157 17.7863 1 11.814 1C5.84157 1 1 5.84157 1 11.814C1 17.7863 5.84157 22.6279 11.814 22.6279Z" stroke="#007AFF" stroke-width="2"/>
</svg>
