<svg width="17" height="17" viewBox="0 0 17 17" fill="none" xmlns="http://www.w3.org/2000/svg">
<path d="M10.1667 15.4998V10.6665C10.1667 10.3903 10.3906 10.1665 10.6667 10.1665H15.5001C15.7763 10.1665 16.0001 10.3903 16.0001 10.6665V15.4998C16.0001 15.776 15.7763 15.9998 15.5001 15.9998H10.6667C10.3906 15.9998 10.1667 15.776 10.1667 15.4998Z" stroke="#007AFF"/>
<path d="M1 15.4998V10.6665C1 10.3903 1.22386 10.1665 1.5 10.1665H6.33334C6.60948 10.1665 6.83334 10.3903 6.83334 10.6665V15.4998C6.83334 15.776 6.60948 15.9998 6.33334 15.9998H1.5C1.22386 15.9998 1 15.776 1 15.4998Z" stroke="#007AFF"/>
<path d="M10.1667 6.33334V1.5C10.1667 1.22386 10.3906 1 10.6667 1H15.5001C15.7763 1 16.0001 1.22386 16.0001 1.5V6.33334C16.0001 6.60948 15.7763 6.83334 15.5001 6.83334H10.6667C10.3906 6.83334 10.1667 6.60948 10.1667 6.33334Z" stroke="#007AFF"/>
<path d="M1 6.33334V1.5C1 1.22386 1.22386 1 1.5 1H6.33334C6.60948 1 6.83334 1.22386 6.83334 1.5V6.33334C6.83334 6.60948 6.60948 6.83334 6.33334 6.83334H1.5C1.22386 6.83334 1 6.60948 1 6.33334Z" stroke="#007AFF"/>
</svg>
