<svg width="393" height="395" viewBox="0 0 393 395" fill="none" xmlns="http://www.w3.org/2000/svg">
<path d="M17.2583 29.2801C-42.4032 78.9753 -55.6461 202.394 -3.9031 261.236C7.42849 274.07 21.6271 284.309 37.3275 290.999C53.574 297.825 65.7247 294.002 82.6538 293.866C106.955 293.593 114.191 318.167 125.659 334.55C140.814 355.985 162.931 372.914 187.096 382.88C314.883 435.169 450.453 294.412 426.151 168.126C417.414 122.527 394.614 91.6721 352.018 72.0125C315.429 55.0834 274.472 50.305 234.197 46.8919C216.312 45.3901 196.243 43.6153 180.815 33.3759C174.262 29.0071 165.78 22.4592 159.5 18.5C152.947 14.4042 146.957 10.7127 139.585 7.70915C127.571 2.93077 114.737 0.47332 101.767 0.063745C76.5102 -0.755406 50.98 6.3439 29.6821 19.9964C25.5863 22.8634 21.3541 26.0035 17.2583 29.2801Z" fill="#E6F2FF"/>
<path d="M192.071 356.848C296.196 356.848 380.606 351.021 380.606 343.833C380.606 336.645 296.196 330.818 192.071 330.818C87.9462 330.818 3.53625 336.645 3.53625 343.833C3.53625 351.021 87.9462 356.848 192.071 356.848Z" fill="#E5E5E5"/>
<path d="M367.563 260.228C367.563 260.228 386.036 258.875 385.796 281.071C385.58 300.858 371.071 301.933 367.923 301.933C367.539 301.933 367.323 301.918 367.323 301.918H226.498V294.932H367.083C367.083 294.932 377.03 292.908 377.399 281.862C377.879 267.439 366.124 267.439 366.124 267.439H226.498V260.228H367.563Z" fill="#3E89FC"/>
<path d="M385.019 341.158C385.283 341.158 385.499 341.374 385.499 341.638C385.499 341.901 385.283 342.117 385.019 342.117V341.158ZM385.019 346.114C385.283 346.114 385.499 346.33 385.499 346.594C385.499 346.858 385.283 347.074 385.019 347.074V346.114ZM385.019 351.714C385.283 351.714 385.499 351.93 385.499 352.193C385.499 352.457 385.283 352.673 385.019 352.673V351.714Z" fill="black"/>
<path d="M385.019 352.674V359.607H232.572C232.572 359.607 221.498 357.745 221.09 347.597C220.558 334.34 233.637 334.34 233.637 334.34H385.018V341.158H231.694C231.43 341.158 231.214 341.374 231.214 341.638C231.214 341.902 231.43 342.118 231.694 342.118H385.019V346.114H240.811C240.547 346.114 240.331 346.33 240.331 346.594C240.331 346.858 240.547 347.074 240.811 347.074H385.019V351.714H263.842C263.578 351.714 263.362 351.93 263.362 352.194C263.362 352.458 263.578 352.674 263.842 352.674H385.019Z" fill="#E5E5E5"/>
<path d="M385.019 352.193V352.673H263.842C263.578 352.673 263.362 352.457 263.362 352.193C263.362 351.93 263.578 351.714 263.842 351.714H385.019V352.193ZM385.019 346.594V347.074H240.811C240.547 347.074 240.331 346.858 240.331 346.594C240.331 346.33 240.547 346.114 240.811 346.114H385.019V346.594ZM385.019 342.117H231.694C231.43 342.117 231.214 341.901 231.214 341.638C231.214 341.374 231.43 341.158 231.694 341.158H385.019V342.117Z" fill="black"/>
<path d="M366.124 267.439C366.124 267.439 377.879 267.439 377.399 281.863C377.03 292.908 367.083 294.933 367.083 294.933H230.106V288.215H360.764C361.028 288.215 361.244 287.999 361.244 287.736C361.244 287.472 361.028 287.256 360.764 287.256H230.106V281.551H346.211C346.475 281.551 346.691 281.335 346.691 281.071C346.691 280.807 346.475 280.591 346.211 280.591H230.106V274.464H350.53C350.794 274.464 351.01 274.248 351.01 273.984C351.01 273.72 350.794 273.504 350.53 273.504H230.106V267.439H366.124Z" fill="#E5E5E5"/>
<path d="M369.482 301.933C369.482 301.933 373.801 314.989 369.482 327.157L326.539 327.407V301.933H369.482Z" fill="#A9D9FF"/>
<path d="M360.764 287.256C361.028 287.256 361.244 287.472 361.244 287.735C361.244 287.999 361.028 288.215 360.764 288.215H230.106V287.256H360.764ZM350.53 273.504C350.794 273.504 351.01 273.72 351.01 273.984C351.01 274.248 350.794 274.464 350.53 274.464H230.106V273.504H350.53ZM346.211 280.591C346.475 280.591 346.691 280.806 346.691 281.071C346.691 281.335 346.475 281.551 346.211 281.551H230.106V280.591H346.211Z" fill="black"/>
<path d="M326.539 301.933V327.407L273.116 327.714H256.808V301.933H326.539Z" fill="white"/>
<path d="M320.541 260.208V260.228H226.498V265.506H210.184V196.412H320.541V260.208ZM294.391 233.996V219.443H274.877V233.996H294.391ZM252.648 242.527V214.324H220.26V242.527H252.648Z" fill="#A9D9FF"/>
<path d="M274.877 219.444H294.391V233.996H274.877V219.444Z" fill="white"/>
<path d="M256.808 327.699V327.714H232.035C232.035 327.714 230.255 327.608 227.75 327.978L213.303 328.059C213.303 328.059 208.985 315.44 213.303 301.933H256.808V327.699Z" fill="#A9D9FF"/>
<path d="M220.26 214.324H252.648V242.527H220.26V214.324Z" fill="white"/>
<path d="M230.106 287.735V288.215C229.842 288.215 229.626 287.999 229.626 287.735C229.626 287.472 229.842 287.256 230.106 287.256V287.735ZM230.106 281.071V281.551C229.842 281.551 229.626 281.335 229.626 281.071C229.626 280.806 229.842 280.591 230.106 280.591V281.071ZM230.106 273.984V274.464C229.842 274.464 229.626 274.248 229.626 273.984C229.626 273.72 229.842 273.504 230.106 273.504V273.984Z" fill="black"/>
<path d="M221.09 347.597C221.498 357.745 232.572 359.607 232.572 359.607H389.035V366.027H232.304C232.304 366.027 212.012 367.27 211.744 346.873C211.556 332.473 221.743 328.856 227.75 327.978L273.117 327.714H389.035V334.34H233.637C233.637 334.34 220.558 334.34 221.09 347.597Z" fill="#295FC5"/>
<path d="M140.515 171.462V232.72H42.4891V171.462H140.515ZM122.119 200.731V187.483H98.7857V200.731H122.119ZM82.7935 207.127V194.335H72.8757V184.897H52.7235V196.413H62.7996V207.127H82.7935Z" fill="#E5E5E5"/>
<path d="M98.7856 187.483H122.119V200.731H98.7856V187.483Z" fill="white"/>
<path d="M91.5021 309.807L87.2701 341.638H42.4891L38.3291 309.807H47.7239C47.7766 309.922 47.8054 309.989 47.8054 309.994C47.848 310.097 47.9249 310.181 48.023 310.234C48.1211 310.286 48.2343 310.302 48.3432 310.28C48.4521 310.258 48.5499 310.199 48.6198 310.112C48.6898 310.026 48.7276 309.918 48.7267 309.807H62.3198V309.821C62.3246 310.081 62.5405 310.287 62.7996 310.287H62.814C63.0731 310.282 63.2746 310.071 63.2794 309.807H74.3152V309.812C74.3164 309.938 74.3675 310.059 74.4574 310.148C74.5472 310.237 74.6686 310.287 74.795 310.287H74.7998C75.0637 310.282 75.2796 310.066 75.2748 309.807H91.5021ZM82.7935 194.335V207.127H62.7996V196.413H72.8757V194.335H82.7935Z" fill="#A9D9FF"/>
<path d="M80.7926 288.993C80.7351 289.098 80.6775 289.199 80.6199 289.304C80.5287 289.132 80.4472 288.954 80.3704 288.762C80.3224 288.637 80.2792 288.508 80.2361 288.378L80.0825 288.368C80.0825 288.344 80.0873 288.32 80.0873 288.292C83.7915 281.689 89.0454 276.728 95.7005 273.551C95.7572 273.524 95.8187 273.508 95.8816 273.505C95.9444 273.501 96.0073 273.51 96.0666 273.531C96.1259 273.552 96.1805 273.585 96.2272 273.627C96.2739 273.669 96.3117 273.72 96.3386 273.777C96.4538 274.017 96.353 274.3 96.1131 274.415C89.5589 277.544 84.4056 282.453 80.7926 288.993Z" fill="black"/>
<path d="M80.0872 288.292C80.164 286.363 78.9645 284.103 78.7917 282.145C78.5374 279.276 78.6334 275.414 79.7082 272.736C81.5987 268.034 86.5599 263.798 91.7419 263.745C93.3829 263.73 95.4557 264.124 97.0295 263.754C99.5965 263.15 99.8988 260.842 100.575 258.822C102.178 254.014 109.994 253.947 112.551 257.867C114.341 260.612 115.272 264.388 114.428 267.627C113.669 270.535 110.771 274.853 108.267 276.542C105.028 278.725 100.81 277.804 97.7012 280.371C96.281 281.541 95.4365 284.017 95.7436 285.85C96.113 288.019 97.8068 289.559 97.9891 291.891C98.3634 296.799 92.524 297.251 88.8342 296.329C86.6415 295.782 85.4755 294.3 83.9162 292.851C82.5631 291.594 81.3587 290.73 80.6198 289.304C80.6774 289.199 80.735 289.098 80.7926 288.993C84.4056 282.453 89.5588 277.545 96.113 274.416C96.3529 274.301 96.4537 274.018 96.3385 273.778C96.3117 273.721 96.2738 273.67 96.2271 273.628C96.1804 273.586 96.1258 273.553 96.0665 273.532C96.0072 273.511 95.9443 273.502 95.8815 273.506C95.8186 273.509 95.7571 273.525 95.7004 273.552C89.0454 276.729 83.7914 281.69 80.0872 288.292Z" fill="#A9D9FF"/>
<path d="M74.3151 309.807C74.3151 309.615 74.2672 298.815 79.9482 288.532C79.9913 288.451 80.0393 288.369 80.0873 288.292C80.0873 288.321 80.0825 288.345 80.0825 288.369L80.236 288.379C80.2792 288.509 80.3224 288.638 80.3704 288.762C80.4472 288.954 80.5287 289.132 80.6199 289.305C75.2124 299.309 75.2748 309.697 75.2748 309.803V309.808L74.3151 309.807Z" fill="black"/>
<path d="M74.7949 309.807H75.2748C75.2796 310.066 75.0636 310.282 74.7997 310.287H74.7949C74.6685 310.287 74.5472 310.237 74.4573 310.148C74.3675 310.059 74.3164 309.938 74.3151 309.812V309.807H74.7949Z" fill="black"/>
<path d="M72.2423 275.227C75.3755 277.496 75.7498 282.054 73.7201 285.336C71.4794 288.959 65.8944 293.426 61.3265 292.092C61.3217 292.044 61.3122 291.996 61.3026 291.948C58.9899 278.801 53.8894 261.475 42.7673 253.596C42.5514 253.447 42.2491 253.495 42.0956 253.711C41.9421 253.927 41.9948 254.229 42.2108 254.383C53.0354 262.046 58.0446 279.041 60.3429 291.996C54.5996 291.631 48.4675 290.124 43.1272 288.176C39.7205 286.934 35.4166 284.179 35.7669 280.024C35.9636 277.693 37.7005 276.229 39.4518 274.943C40.8001 273.95 42.2347 272.832 41.6926 270.903C41.1408 268.941 38.7369 268.787 37.0432 268.067C34.6393 267.045 32.1634 265.764 30.5273 263.711C26.3289 258.428 26.8855 251.845 32.4129 247.872C37.2927 244.369 43.2088 243.904 48.7266 245.981C53.8031 247.901 60.2566 252.383 60.2422 258.184C60.2326 262.588 58.3229 266.019 62.0367 269.502C65.0163 272.295 68.9988 272.875 72.2423 275.227Z" fill="#3E89FC"/>
<path d="M72.8756 194.335V196.412H52.7234V184.897H72.8756V194.335Z" fill="white"/>
<path d="M62.7996 309.807H63.2795C63.2747 310.071 63.0731 310.282 62.814 310.287H62.7996C62.5405 310.287 62.3246 310.08 62.3198 309.821V309.807H62.7996ZM62.3198 309.807C62.3102 309.413 62.0559 301.727 60.3622 292.111C60.3574 292.073 60.3478 292.034 60.343 291.996C60.5061 292.01 60.6693 292.02 60.8324 292.03C60.9571 292.044 61.0771 292.049 61.2019 292.054C61.245 292.068 61.2834 292.078 61.3266 292.092C63.0539 301.918 63.2795 309.715 63.2795 309.792V309.807H62.3198ZM48.2469 309.807H48.7267C48.7268 309.87 48.7145 309.932 48.6904 309.991C48.6664 310.049 48.631 310.102 48.5864 310.146C48.5419 310.191 48.4889 310.226 48.4306 310.25C48.3724 310.274 48.3099 310.287 48.2469 310.287C48.0597 310.287 47.8822 310.176 47.8054 309.994C47.8054 309.989 47.7767 309.922 47.7239 309.807H48.2469Z" fill="black"/>
<path d="M42.2107 254.384C41.9948 254.23 41.942 253.928 42.0956 253.712C42.2491 253.496 42.5514 253.448 42.7673 253.597C53.8894 261.476 58.9898 278.802 61.3025 291.949C61.3121 291.997 61.3217 292.044 61.3265 292.093C61.2833 292.079 61.245 292.069 61.2018 292.055C61.077 292.05 60.9571 292.044 60.8323 292.031C60.6692 292.02 60.506 292.011 60.3429 291.997C58.0446 279.042 53.0353 262.046 42.2107 254.384ZM39.7733 299.578C39.874 299.458 39.9652 299.324 40.0468 299.185C40.0516 299.189 40.0612 299.194 40.066 299.198L40.1619 299.27C40.2435 299.338 40.3299 299.4 40.4114 299.472C46.3659 304.179 48.5971 309.404 48.6882 309.62C48.717 309.682 48.7266 309.745 48.7266 309.807H47.7238C47.268 308.848 44.9505 304.285 39.8021 300.211C39.7781 300.192 39.7589 300.173 39.7397 300.163C39.8021 300.125 39.8644 300.086 39.9316 300.053L40.0995 299.837C39.994 299.745 39.8836 299.664 39.7733 299.578Z" fill="black"/>
<path d="M39.4758 299.956L39.5718 300.028C39.6245 300.071 39.6773 300.11 39.7397 300.163C37.9932 301.146 36.9472 301.928 34.812 302.408C32.1298 303.013 29.3997 303.06 26.6504 303.09C22.1641 303.138 18.4407 301.813 14.6598 299.606C11.1812 297.576 7.69291 294.271 7.02117 289.991C6.25347 285.12 10.9317 279.454 16.2336 280.686C17.7162 281.032 18.0089 282.625 18.6998 283.738C19.4867 285.01 20.2209 285.346 21.7371 285.499C25.6907 285.892 29.1166 282.846 33.2142 284.371C36.8224 285.71 39.5382 289.284 40.2915 292.984C40.637 294.677 41.0208 297.523 40.0468 299.183C35.6757 295.825 30.4937 293.646 24.6543 292.701C24.3904 292.657 24.1457 292.84 24.1026 293.099C24.0594 293.363 24.2417 293.608 24.5008 293.651C30.1914 294.568 35.2342 296.689 39.4758 299.956Z" fill="#295FC5"/>
<path d="M39.5718 300.028L39.4758 299.956C35.2343 296.689 30.1914 294.569 24.5008 293.652C24.2417 293.608 24.0594 293.363 24.1026 293.1C24.1458 292.841 24.3905 292.658 24.6544 292.702C30.4937 293.647 35.6757 295.826 40.0468 299.184C39.9653 299.324 39.8741 299.457 39.7733 299.577C39.8837 299.664 39.994 299.746 40.0996 299.836L39.9317 300.052C39.8645 300.086 39.8021 300.124 39.7397 300.163C39.6774 300.11 39.6246 300.072 39.5718 300.028Z" fill="black"/>
<path d="M333.607 107.647L331.687 116.283L299.06 107.647H333.607ZM316.463 62.0643L298.95 71.1808L310.225 58.3362L316.463 62.0643ZM300.389 155.465L295.591 160.666L282.396 137.755L300.389 155.465ZM288.154 28.2374L269.201 51.0286L278.318 24.3989L288.154 28.2374Z" fill="#E22953"/>
<path d="M237.433 134.627V134.684C237.433 134.948 237.649 135.16 237.913 135.16C238.157 135.16 238.364 134.972 238.388 134.732C240.916 135.025 243.257 135.356 245.412 135.716C245.407 135.745 245.402 135.769 245.402 135.798C245.402 136.062 245.618 136.277 245.882 136.277C246.117 136.277 246.314 136.105 246.352 135.879V135.874C254 137.199 259.168 138.787 261.869 139.747C263.361 140.279 264.105 140.62 264.105 140.62L261.101 147.591C260.592 147.443 260.084 147.294 259.576 147.155C241.952 142.237 225.561 142.088 220.25 142.194C219.094 142.218 218.46 142.251 218.46 142.251L217.918 133.615C219.06 133.615 220.178 133.624 221.272 133.643C227.299 133.744 232.683 134.114 237.433 134.627Z" fill="#A9D9FF"/>
<path d="M252.374 102.623C253.123 100.589 253.828 99.0918 254.481 98.1706C255.479 96.7551 257.298 95.9106 259.351 95.9106C261.14 95.9106 262.623 96.568 262.872 97.4844C263.118 98.3721 262.158 99.538 260.239 100.675C258.127 101.928 255.483 102.585 252.374 102.623Z" fill="#FFC962"/>
<path d="M254.481 98.1706C253.828 99.0918 253.123 100.589 252.374 102.623C255.483 102.585 258.127 101.928 260.238 100.675C262.158 99.5381 263.117 98.3721 262.872 97.4845C262.623 96.568 261.14 95.9107 259.35 95.9107C257.297 95.9107 255.479 96.7551 254.481 98.1706ZM251.851 102.652C252.576 100.656 253.334 98.9623 254.087 97.8923C257.609 92.8926 268.563 96.2897 260.483 101.088C258.094 102.503 255.195 103.093 252.173 103.108C252.173 103.041 252.163 102.974 252.134 102.916C252.123 102.887 252.108 102.86 252.091 102.834C252.074 102.807 252.053 102.783 252.029 102.762C252.009 102.742 251.986 102.725 251.962 102.71C251.944 102.695 251.924 102.682 251.904 102.671C251.885 102.666 251.87 102.657 251.851 102.652ZM252.129 103.3C252.096 103.396 252.062 103.492 252.034 103.588C251.919 103.588 251.808 103.583 251.693 103.583C251.89 103.583 252.058 103.468 252.129 103.3Z" fill="black"/>
<path d="M252.091 102.834C252.11 102.863 252.125 102.892 252.135 102.917C252.125 102.887 252.11 102.859 252.091 102.834Z" fill="black"/>
<path d="M252.091 102.834C252.11 102.858 252.125 102.887 252.134 102.916C252.164 102.973 252.173 103.041 252.173 103.108C252.014 103.108 251.851 103.108 251.693 103.103C251.746 102.949 251.799 102.801 251.851 102.652C251.87 102.657 251.885 102.666 251.904 102.671C251.923 102.681 251.947 102.695 251.962 102.709C251.986 102.724 252.01 102.743 252.029 102.762C252.053 102.781 252.077 102.81 252.091 102.834Z" fill="black"/>
<path d="M251.362 102.614C252.187 100.306 252.95 98.6695 253.693 97.6139C254.869 95.9441 256.985 94.9509 259.35 94.9509C261.639 94.9509 263.424 95.8626 263.798 97.23C264.062 98.1897 263.741 99.7107 260.728 101.5C258.396 102.882 255.479 103.588 252.062 103.588H252.033C252.062 103.492 252.095 103.396 252.129 103.3C252.158 103.242 252.172 103.175 252.172 103.108C255.195 103.093 258.093 102.503 260.482 101.088C268.563 96.2896 257.608 92.8925 254.087 97.8922C253.333 98.9622 252.575 100.656 251.851 102.652C251.814 102.636 251.775 102.628 251.735 102.628C251.731 102.623 251.726 102.623 251.722 102.623H251.687C251.578 102.623 251.472 102.618 251.362 102.614Z" fill="black"/>
<path d="M252.062 103.587C255.479 103.587 258.396 102.882 260.728 101.5C263.741 99.7105 264.062 98.1895 263.799 97.2298C263.424 95.8624 261.639 94.9507 259.35 94.9507C256.985 94.9507 254.869 95.9439 253.693 97.6137C252.949 98.6693 252.187 100.305 251.362 102.613C247.815 102.508 243.771 101.611 240.163 100.109C240.029 96.3182 239.808 94.0247 239.506 93.0986C239.007 91.6016 237.499 90.6276 235.667 90.6276C234.372 90.6276 233.2 91.1458 232.529 92.0047C232.092 92.566 231.651 93.5497 232.03 95.0371C232.486 96.8172 235.23 99.0003 239.227 100.752C239.462 107.824 239.366 117.598 239.337 119.968L237.97 119.805C237.903 119.797 237.835 119.803 237.77 119.822C237.706 119.842 237.646 119.876 237.595 119.92C237.544 119.965 237.502 120.02 237.474 120.082C237.446 120.144 237.432 120.212 237.432 120.28V129.804C230.225 127.808 223.873 124.171 218.921 119.412C211.714 112.478 207.482 103.175 207.914 93.1178C208.787 72.9368 228.138 57.3861 251.141 58.3793C274.139 59.3725 292.078 76.5402 291.205 96.7164C290.6 110.693 281.134 122.449 267.728 128.024C261.779 130.505 255.051 131.762 247.984 131.455C247.744 131.445 247.504 131.431 247.264 131.417L249.265 121.657C249.294 121.528 249.26 121.388 249.183 121.278C249.145 121.225 249.095 121.18 249.038 121.147C248.981 121.114 248.918 121.093 248.852 121.086L247.619 120.942C248.056 118.754 249.869 109.887 252.033 103.587H252.062Z" fill="#FFC962"/>
<path d="M251.962 102.709C251.944 102.694 251.925 102.681 251.904 102.671C251.923 102.681 251.942 102.695 251.962 102.709ZM251.693 103.103C251.851 103.108 252.014 103.108 252.173 103.108C252.173 103.175 252.159 103.242 252.129 103.3C252.057 103.468 251.89 103.583 251.693 103.583H251.688C251.635 103.583 251.587 103.573 251.539 103.554C251.587 103.4 251.64 103.252 251.693 103.103Z" fill="black"/>
<path d="M251.688 102.623H251.722C251.727 102.623 251.732 102.623 251.736 102.628C251.776 102.628 251.815 102.636 251.851 102.652C251.799 102.801 251.746 102.949 251.693 103.103C251.534 103.103 251.376 103.098 251.213 103.088C251.213 103.04 251.223 102.993 251.242 102.945L251.271 102.873C251.357 102.719 251.52 102.623 251.688 102.623Z" fill="black"/>
<path d="M251.688 102.623C251.52 102.623 251.357 102.719 251.271 102.873C251.3 102.786 251.328 102.695 251.362 102.614C251.472 102.619 251.578 102.623 251.688 102.623ZM251.688 103.583C251.635 103.583 251.582 103.583 251.53 103.578C251.534 103.569 251.534 103.559 251.54 103.554C251.587 103.573 251.635 103.583 251.688 103.583ZM251.693 103.103C251.64 103.252 251.587 103.401 251.54 103.554C251.442 103.525 251.357 103.462 251.3 103.377C251.239 103.293 251.208 103.192 251.213 103.089C251.376 103.098 251.534 103.103 251.693 103.103ZM251.242 102.945C251.223 102.993 251.212 103.041 251.212 103.089H251.193C251.208 103.041 251.227 102.993 251.242 102.945Z" fill="black"/>
<path d="M251.299 103.377C251.356 103.463 251.443 103.525 251.539 103.554C251.534 103.559 251.534 103.568 251.529 103.578C251.366 103.578 251.199 103.573 251.03 103.564C251.083 103.4 251.136 103.242 251.193 103.089H251.213C251.208 103.192 251.239 103.293 251.299 103.377Z" fill="black"/>
<path d="M251.031 103.564C248.862 109.969 247.067 118.788 246.664 120.828L240.297 120.079C240.321 117.934 240.422 108.319 240.201 101.165C243.747 102.585 247.538 103.425 251.031 103.564ZM247.264 131.417C247.504 131.431 247.744 131.446 247.984 131.455C255.051 131.763 261.779 130.505 267.728 128.025V128.03L261.869 139.747C259.168 138.787 254.001 137.199 246.352 135.875L247.264 131.417Z" fill="#FFC962"/>
<path d="M249.265 121.657L247.264 131.417L246.784 131.388L248.795 121.561L247.533 121.413C247.543 121.345 247.576 121.187 247.619 120.942L248.852 121.086C248.987 121.101 249.107 121.173 249.183 121.278C249.26 121.389 249.294 121.528 249.265 121.657Z" fill="black"/>
<path d="M248.219 121.979L246.3 131.35C243.631 131.148 240.986 130.714 238.393 130.054V120.823L239.712 120.976L247.053 121.84L248.219 121.979Z" fill="#FFC962"/>
<path d="M252.033 103.587C249.87 109.887 248.056 118.754 247.619 120.942L247.145 120.885C247.562 118.774 249.356 109.964 251.53 103.578C251.583 103.583 251.636 103.583 251.688 103.583H251.693C251.808 103.583 251.918 103.587 252.033 103.587ZM246.3 131.35L248.219 121.979L247.053 121.84V121.835C247.279 121.835 247.481 121.676 247.523 121.446C247.523 121.441 247.528 121.432 247.533 121.413L248.795 121.561L246.785 131.388C246.621 131.378 246.458 131.364 246.3 131.35ZM247.264 131.417L246.352 135.874C246.199 135.845 246.041 135.821 245.883 135.793L246.785 131.388L247.264 131.417Z" fill="black"/>
<path d="M246.664 120.827C247.067 118.788 248.862 109.969 251.031 103.564C251.199 103.573 251.367 103.578 251.53 103.578C249.356 109.964 247.562 118.774 247.144 120.885L246.664 120.827ZM247.619 120.943C247.576 121.187 247.543 121.346 247.533 121.413L247.053 121.355C247.053 121.355 247.087 121.192 247.144 120.885L247.619 120.943Z" fill="black"/>
<path d="M246.583 121.264C246.583 121.25 246.612 121.101 246.664 120.827L247.144 120.885C247.087 121.192 247.053 121.355 247.053 121.355L246.578 121.298C246.578 121.288 246.583 121.274 246.583 121.264Z" fill="black"/>
<path d="M246.962 121.825C246.842 121.803 246.736 121.736 246.664 121.638C246.593 121.54 246.562 121.418 246.578 121.297L247.053 121.355L247.532 121.412C247.528 121.432 247.523 121.441 247.523 121.446C247.502 121.556 247.444 121.654 247.358 121.725C247.272 121.796 247.164 121.835 247.053 121.835C247.024 121.835 246.995 121.83 246.962 121.825ZM246.3 131.349C246.458 131.364 246.622 131.378 246.785 131.388L245.883 135.793C245.729 135.769 245.571 135.74 245.413 135.716V135.697L246.3 131.349ZM240.297 120.079L246.665 120.827C246.612 121.101 246.583 121.249 246.583 121.264C246.583 121.273 246.578 121.288 246.578 121.297L240.288 120.563C240.293 120.549 240.293 120.53 240.293 120.51C240.292 120.496 240.292 120.347 240.297 120.079Z" fill="black"/>
<path d="M238.392 130.054C240.935 130.702 243.579 131.143 246.299 131.349L245.412 135.697V135.716C243.257 135.356 240.916 135.025 238.387 134.732C238.392 134.718 238.392 134.699 238.392 134.679L238.392 130.054Z" fill="#FFC962"/>
<path d="M245.882 135.793C246.041 135.822 246.199 135.846 246.352 135.874V135.879C246.314 136.105 246.117 136.278 245.882 136.278C245.618 136.278 245.402 136.062 245.402 135.798C245.402 135.769 245.407 135.745 245.412 135.716C245.57 135.74 245.729 135.769 245.882 135.793ZM240.163 100.109C243.771 101.611 247.815 102.508 251.362 102.614C251.328 102.695 251.299 102.786 251.271 102.873L251.242 102.945C251.227 102.993 251.208 103.041 251.193 103.089C247.388 102.959 243.454 101.971 240.187 100.637C240.182 100.57 240.182 100.503 240.177 100.435V100.421L240.163 100.109Z" fill="black"/>
<path d="M240.187 100.637C243.454 101.971 247.389 102.959 251.193 103.089C251.136 103.242 251.083 103.401 251.03 103.564C247.537 103.425 243.747 102.585 240.201 101.165L240.187 100.637ZM240.292 120.511C240.292 120.53 240.292 120.549 240.288 120.564L239.813 120.506C239.813 120.506 239.817 120.333 239.817 120.021L240.297 120.079C240.292 120.348 240.292 120.496 240.292 120.511Z" fill="black"/>
<path d="M239.817 120.021C239.847 117.766 239.947 108.117 239.717 100.963C239.88 101.03 240.043 101.097 240.201 101.164C240.422 108.318 240.321 117.934 240.297 120.079L239.817 120.021Z" fill="black"/>
<path d="M240.201 101.165C240.043 101.097 239.88 101.03 239.717 100.963C239.717 100.944 239.712 100.93 239.712 100.915C239.803 100.91 239.894 100.882 239.971 100.829C240.048 100.776 240.105 100.704 240.139 100.618C240.153 100.627 240.168 100.632 240.187 100.637L240.201 101.165Z" fill="black"/>
<path d="M240.139 100.618C240.163 100.56 240.177 100.498 240.177 100.435C240.182 100.502 240.182 100.57 240.187 100.637C240.17 100.633 240.154 100.627 240.139 100.618ZM240.163 100.109L240.177 100.421C240.172 100.224 240.033 100.061 239.865 99.989C239.87 99.989 239.879 99.989 239.885 99.9938C239.976 100.032 240.072 100.071 240.163 100.109ZM239.697 100.435C239.841 100.498 239.99 100.56 240.139 100.618C240.106 100.704 240.048 100.776 239.971 100.829C239.894 100.881 239.803 100.91 239.712 100.915L239.697 100.435ZM239.817 120.021C239.817 120.333 239.813 120.506 239.813 120.506L239.333 120.448C239.333 120.372 239.338 120.208 239.338 119.968L239.817 120.021ZM247.053 121.84L239.712 120.976C239.741 120.981 239.774 120.986 239.808 120.986H239.813C240.057 120.986 240.259 120.803 240.288 120.563L246.578 121.298C246.544 121.547 246.712 121.777 246.962 121.825C246.995 121.83 247.024 121.835 247.053 121.835V121.84H247.053ZM239.338 119.968C239.367 117.598 239.462 107.824 239.228 100.752C239.318 100.795 239.415 100.833 239.511 100.877C239.578 100.905 239.65 100.934 239.717 100.963C239.947 108.117 239.847 117.766 239.817 120.021L239.338 119.968Z" fill="black"/>
<path d="M239.678 99.9553C239.741 99.9505 239.808 99.9649 239.866 99.9889C240.034 100.061 240.173 100.224 240.177 100.421V100.435C240.177 100.497 240.163 100.56 240.139 100.617C239.99 100.56 239.841 100.497 239.697 100.435C239.693 100.272 239.688 100.114 239.678 99.9553ZM239.717 100.963C239.649 100.934 239.577 100.905 239.51 100.877C239.568 100.901 239.635 100.915 239.697 100.915H239.712C239.712 100.929 239.717 100.944 239.717 100.963Z" fill="black"/>
<path d="M239.697 100.435C239.549 100.373 239.405 100.306 239.256 100.243C239.292 100.161 239.351 100.09 239.426 100.039C239.5 99.9877 239.588 99.9589 239.678 99.9556C239.688 100.114 239.693 100.272 239.697 100.435Z" fill="black"/>
<path d="M239.582 99.9697C239.552 99.975 239.523 99.9847 239.496 99.9985C239.525 99.9889 239.554 99.9745 239.582 99.9697ZM239.51 100.877C239.426 100.842 239.353 100.784 239.302 100.709C239.25 100.634 239.22 100.545 239.218 100.454C239.218 100.416 239.218 100.378 239.228 100.339C239.233 100.306 239.242 100.277 239.257 100.248V100.243C239.406 100.306 239.549 100.373 239.698 100.435C239.703 100.593 239.708 100.752 239.712 100.915H239.698C239.635 100.915 239.568 100.901 239.51 100.877ZM239.333 120.448L239.813 120.506L240.288 120.563C240.258 120.803 240.057 120.986 239.813 120.986H239.808C239.745 120.985 239.682 120.972 239.624 120.947C239.566 120.923 239.514 120.887 239.47 120.842C239.426 120.797 239.391 120.744 239.367 120.685C239.344 120.627 239.332 120.564 239.333 120.501V120.448Z" fill="black"/>
<path d="M239.218 100.454C239.222 100.637 239.333 100.8 239.51 100.877C239.414 100.833 239.318 100.795 239.227 100.752C239.222 100.651 239.222 100.55 239.218 100.454Z" fill="black"/>
<path d="M239.189 99.6869C235.782 98.1227 233.316 96.2035 232.961 94.7976C232.735 93.9052 232.846 93.1662 233.288 92.5953C233.777 91.9667 234.669 91.5876 235.667 91.5876C236.737 91.5876 238.148 92.0627 238.594 93.4013C238.776 93.9531 239.021 95.4981 239.189 99.6869Z" fill="#FFC962"/>
<path d="M237.913 120.28L239.333 120.448V120.501C239.328 120.731 239.491 120.928 239.712 120.976L238.392 120.822V130.054C238.229 130.016 238.071 129.977 237.913 129.934V120.28Z" fill="black"/>
<path d="M237.912 134.68V129.934C238.071 129.978 238.229 130.016 238.392 130.054V134.68C238.392 134.699 238.392 134.718 238.388 134.732C238.229 134.713 238.071 134.699 237.912 134.68ZM237.97 119.805L239.338 119.969C239.338 120.208 239.333 120.372 239.333 120.448L237.912 120.28V129.934L237.433 129.805V120.28C237.433 120.141 237.49 120.012 237.596 119.921C237.697 119.829 237.831 119.791 237.97 119.805Z" fill="black"/>
<path d="M237.912 129.934V134.68C237.754 134.66 237.591 134.646 237.433 134.627V129.805L237.912 129.934Z" fill="black"/>
<path d="M237.912 134.679C238.071 134.699 238.229 134.713 238.388 134.732C238.364 134.972 238.157 135.159 237.912 135.159C237.649 135.159 237.433 134.948 237.433 134.684V134.627C237.591 134.646 237.754 134.66 237.912 134.679Z" fill="black"/>
<path d="M237.433 129.805V134.627C232.683 134.113 227.299 133.744 221.273 133.643L218.922 119.412C223.873 124.172 230.226 127.809 237.433 129.805Z" fill="#FFC962"/>
<path d="M236.094 22L235.038 43.8315L230.106 22H236.094Z" fill="#E22953"/>
<path d="M223.058 149.918C227.793 150.048 241.295 150.705 255.148 154.078L255.047 154.501L253.847 160.666C235.039 157.068 223.139 156.588 223.139 156.588L223.048 150.269L223.058 149.918Z" fill="#295FC5"/>
<path d="M238.594 93.4011C238.148 92.0624 236.737 91.5874 235.667 91.5874C234.669 91.5874 233.777 91.9664 233.287 92.595C232.846 93.166 232.735 93.9049 232.96 94.7973C233.315 96.2032 235.782 98.1225 239.188 99.6867C239.021 95.4979 238.776 93.9529 238.594 93.4011ZM232.495 94.9173C231.378 90.5078 237.932 89.8936 239.05 93.2523C239.361 94.1928 239.558 96.755 239.678 99.9553C239.645 99.9553 239.616 99.9601 239.582 99.9697C239.554 99.9745 239.525 99.9889 239.496 99.9985C239.389 100.048 239.303 100.135 239.256 100.243C235.581 98.6023 232.913 96.5583 232.495 94.9173Z" fill="black"/>
<path d="M239.05 93.2523C237.932 89.8936 231.377 90.5077 232.495 94.9172C232.913 96.5582 235.581 98.6022 239.256 100.243V100.248C239.242 100.277 239.232 100.31 239.227 100.339C239.217 100.378 239.217 100.416 239.217 100.454C239.222 100.55 239.222 100.651 239.227 100.752C235.23 99.0004 232.486 96.8173 232.03 95.0372C231.651 93.5498 232.092 92.5661 232.529 92.0048C233.2 91.1459 234.371 90.6277 235.667 90.6277C237.499 90.6277 239.007 91.6017 239.506 93.0987C239.808 94.0248 240.029 96.3183 240.163 100.109C240.072 100.07 239.975 100.032 239.885 99.9937C239.879 99.9889 239.87 99.9889 239.865 99.9889C239.806 99.9635 239.742 99.952 239.678 99.9553C239.558 96.7549 239.362 94.1927 239.05 93.2523Z" fill="black"/>
<path d="M259.365 147.951L256.846 154.501C256.28 154.352 255.714 154.213 255.148 154.078C241.295 150.705 227.793 150.048 223.058 149.918C221.911 149.89 221.277 149.89 221.277 149.89L220.26 142.793L220.251 142.193C225.562 142.088 241.952 142.237 259.576 147.155L259.365 147.951Z" fill="#3E89FC"/>
<path d="M204.959 42.4595L209.224 62.0647L196.941 44.6186L204.959 42.4595ZM202.507 124.201L184.994 137.755L181.635 131.503L202.507 124.201ZM193.631 94.9176L166.19 91.1078L168.2 82.4568L193.631 94.9176Z" fill="#E22953"/>
<path d="M279.517 88.1344C279.046 83.6496 275.111 76.5536 271.522 74.0586C270.504 73.3513 267.111 71.7085 265.828 72.8451C263.726 74.7073 266.839 77.9206 268.002 79.1777C269.942 81.276 272.079 83.415 273.368 85.8788C274.327 87.7093 274.674 90.1324 275.919 91.7325C279.412 96.2188 281.201 90.545 279.197 87.1748M278.238 100.61C277.792 101.711 276.463 106.003 276.952 107.327C277.7 109.35 279.987 109.891 281.388 107.967C283.6 104.926 278.895 98.2796 277.598 102.209" fill="white"/>
<g clip-path="url(#clip0_27_2200)">
<path d="M131.317 335.3C131.317 335.3 115.017 402.6 113.817 414.8C112.617 427 120.217 432.8 124.817 432.8C129.517 432.8 139.317 426.5 141.217 418.7C143.217 410.9 151.317 366.5 150.317 361.2C149.317 355.9 131.317 335.3 131.317 335.3Z" fill="#FF8E77"/>
<path d="M272.217 378.2C272.217 378.2 270.617 428.7 271.417 437.5C272.117 446.2 273.717 448.1 274.417 458.7C275.117 469.3 274.417 491.2 274.417 491.2H255.617C255.617 491.2 249.517 461.4 249.517 454.3C249.517 447.1 250.117 438.8 249.517 433C248.917 427.1 242.017 380.8 242.017 380.8L272.217 378.2Z" fill="#FFA07F"/>
<path d="M260.117 323.1C246.617 309.7 212.817 297.9 212.817 297.9L197.217 297.4L181.617 297.9C181.617 297.9 147.817 309.7 134.317 323.1C120.817 336.5 114.717 385.7 115.217 387.2C115.717 388.7 146.617 394 146.617 394C146.617 394 142.417 446.5 144.917 450.1C147.417 453.7 165.817 455.2 197.217 455.2C228.617 455.2 247.117 453.7 249.517 450.1C252.017 446.5 247.817 394 247.817 394C247.817 394 278.717 388.7 279.217 387.2C279.817 385.8 273.617 336.5 260.117 323.1Z" fill="#007AFF"/>
<path fill-rule="evenodd" clip-rule="evenodd" d="M132.334 325.544C132.334 325.545 132.334 325.545 132.717 324.9C133.1 324.255 133.101 324.255 133.101 324.255L133.102 324.256L133.105 324.258L133.114 324.263L133.147 324.283C133.174 324.3 133.214 324.325 133.265 324.357C133.366 324.422 133.512 324.517 133.697 324.644C134.068 324.897 134.596 325.278 135.236 325.791C136.517 326.818 138.253 328.378 140.087 330.525C143.759 334.821 147.829 341.467 149.456 350.872L149.457 350.876C151.024 360.227 150.49 371.058 149.575 379.518C149.117 383.755 148.562 387.411 148.121 390.008C147.9 391.307 147.708 392.342 147.571 393.053C147.503 393.408 147.448 393.683 147.41 393.869C147.391 393.962 147.376 394.033 147.366 394.081L147.355 394.136L147.351 394.155C147.351 394.155 147.351 394.156 146.617 394L145.884 393.844L145.884 393.84L145.887 393.828L145.898 393.776C145.907 393.731 145.921 393.662 145.94 393.571C145.977 393.389 146.031 393.12 146.098 392.769C146.233 392.068 146.423 391.044 146.642 389.757C147.079 387.183 147.63 383.557 148.084 379.357C148.994 370.942 149.511 360.274 147.978 351.126C146.405 342.032 142.475 335.628 138.947 331.5C137.182 329.434 135.517 327.938 134.298 326.962C133.689 326.474 133.192 326.115 132.85 325.881C132.679 325.764 132.547 325.678 132.459 325.622C132.415 325.594 132.382 325.574 132.361 325.561L132.339 325.547L132.334 325.544C132.334 325.544 132.334 325.544 132.334 325.544Z" fill="#E6F2FF"/>
<path fill-rule="evenodd" clip-rule="evenodd" d="M261.434 324.255C261.434 324.255 261.434 324.255 261.817 324.9C262.2 325.545 262.2 325.545 262.201 325.544L262.196 325.547L262.173 325.561C262.152 325.574 262.119 325.594 262.076 325.622C261.988 325.678 261.856 325.764 261.685 325.881C261.343 326.115 260.846 326.474 260.236 326.962C259.017 327.938 257.353 329.434 255.587 331.5C252.059 335.628 248.13 342.032 246.557 351.126C245.024 360.274 245.54 370.942 246.45 379.357C246.905 383.557 247.456 387.183 247.893 389.757C248.111 391.044 248.301 392.068 248.436 392.769C248.504 393.12 248.558 393.389 248.595 393.571C248.613 393.662 248.627 393.731 248.637 393.776L248.648 393.828L248.65 393.84L248.651 393.843L247.917 394C247.184 394.156 247.184 394.155 247.184 394.155L247.18 394.136L247.168 394.081C247.158 394.033 247.144 393.962 247.125 393.869C247.087 393.683 247.032 393.408 246.963 393.053C246.826 392.342 246.634 391.307 246.414 390.008C245.973 387.411 245.417 383.755 244.959 379.518C244.044 371.058 243.511 360.227 245.078 350.876L245.078 350.872C246.705 341.467 250.775 334.821 254.447 330.525C256.282 328.378 258.017 326.818 259.298 325.791C259.939 325.278 260.467 324.897 260.837 324.644C261.023 324.517 261.169 324.422 261.27 324.357C261.321 324.325 261.36 324.3 261.388 324.283L261.42 324.263L261.43 324.258L261.433 324.256L261.434 324.255Z" fill="#E6F2FF"/>
<path d="M211.917 297.9C209.017 289.3 210.817 278.6 210.817 278.6H197.217H196.317H182.717C182.717 278.6 184.617 289.3 181.617 297.9C181.617 297.9 186.317 307.2 196.317 307.7C196.517 307.7 196.617 307.7 196.817 307.7C197.017 307.7 197.117 307.7 197.317 307.7C207.217 307.2 211.917 297.9 211.917 297.9Z" fill="#FFA07F"/>
<path d="M197.317 278.6H196.417H182.817C182.817 278.6 183.117 280.6 183.317 283.6C186.517 287 191.717 291.7 197.317 291.9C202.017 292.1 206.817 289 210.317 286.1C210.317 281.8 210.917 278.6 210.917 278.6H197.317Z" fill="#FF8E77"/>
<path d="M197.317 199.6C194.317 199.7 180.417 199.9 170.117 210.8C159.417 222.2 160.517 237.8 161.117 244.2C161.517 248.6 162.817 261.7 173.017 273C177.017 277.4 185.417 286.7 197.317 286.3C208.517 286 215.917 277.4 221.217 271.2C231.117 259.6 233.117 247.2 233.517 244.2C234.417 237.3 236.417 222.6 226.317 211.1C215.917 199.2 200.417 199.5 197.317 199.6Z" fill="#FFA07F"/>
<path d="M186.517 247.1C186.517 249.2 185.417 250.9 184.117 250.9C182.817 250.9 181.717 249.2 181.717 247.1C181.717 245 182.817 243.3 184.117 243.3C185.417 243.3 186.517 245 186.517 247.1Z" fill="#131313"/>
<path d="M214.317 247.1C214.317 249.2 213.217 250.9 211.917 250.9C210.617 250.9 209.517 249.2 209.517 247.1C209.517 245 210.617 243.3 211.917 243.3C213.217 243.3 214.317 245 214.317 247.1Z" fill="#131313"/>
<path d="M174.417 241.1C174.317 239.4 175.117 237.6 176.017 236.3C177.017 234.8 178.517 233.5 180.117 232.6C181.817 231.7 183.617 231.2 185.617 231.1C186.617 231.1 187.617 231.2 188.517 231.6C188.817 231.7 190.017 232.1 190.217 232.4C190.517 232.6 189.017 232.8 188.917 232.8C188.017 232.9 187.017 233 186.117 233.3C184.417 233.8 182.917 234.4 181.417 235.3C179.817 236.2 178.417 237.3 177.117 238.6C176.417 239.2 175.817 239.9 175.217 240.7C175.117 240.5 174.417 241.7 174.417 241.1Z" fill="#131313"/>
<path d="M207.217 232.2C208.417 231.3 210.117 231.1 211.517 231.2C213.317 231.3 215.017 231.9 216.517 232.8C218.117 233.7 219.417 235.1 220.317 236.7C220.717 237.4 221.117 238.2 221.317 239C221.417 239.5 221.817 240.6 221.617 241.1C221.417 241.6 221.117 240.9 220.917 240.7C220.417 240.1 219.917 239.5 219.317 238.9C218.117 237.6 216.717 236.4 215.217 235.5C213.617 234.6 212.117 233.8 210.317 233.2C209.617 233 208.917 232.8 208.117 232.7C207.917 232.6 206.717 232.6 207.217 232.2Z" fill="#131313"/>
<path d="M226.217 264.1L232.217 246C235.817 241.7 237.717 241 238.817 241.4C242.017 242.6 243.317 255.4 236.317 261.2C232.617 264.3 227.917 264.2 226.217 264.1Z" fill="#FFA07F"/>
<path d="M168.617 264.1L162.617 246C159.017 241.7 157.117 241 156.017 241.4C152.817 242.6 151.517 255.4 158.517 261.2C162.217 264.3 166.817 264.2 168.617 264.1Z" fill="#FFA07F"/>
<path d="M216.217 347.7C216.117 349.6 214.517 351.2 212.617 351.2H183.817C181.917 351.2 180.317 349.6 180.317 347.7L178.917 298.3C178.817 296 180.517 294.1 182.617 294.1H214.517C216.617 294.1 218.317 296 218.217 298.3L216.217 347.7Z" fill="#F8F8F8"/>
<path d="M216.117 350.7C216.017 352.6 214.417 354.1 212.517 354.1H183.917C182.017 354.1 180.417 352.6 180.417 350.7L179.017 301.2C178.917 298.9 180.617 297 182.717 297H214.417C216.517 297 218.117 298.9 218.017 301.2L216.117 350.7Z" fill="white"/>
<path d="M214.117 315.5C214.017 317.4 212.617 318.9 210.817 318.9C209.017 318.9 207.617 317.4 207.717 315.5L207.917 304.3C207.917 302.3 209.517 300.7 211.317 300.7C213.117 300.7 214.617 302.3 214.517 304.3L214.117 315.5Z" fill="#131313"/>
<path d="M213.217 304.4C213.217 305.6 212.317 306.6 211.217 306.6C210.117 306.6 209.317 305.6 209.317 304.4C209.317 303.2 210.217 302.2 211.317 302.2C212.417 302.2 213.217 303.2 213.217 304.4Z" fill="#F8F8F8"/>
<path d="M212.117 304.4C212.117 304.9 211.717 305.3 211.217 305.3C210.717 305.3 210.417 304.9 210.417 304.4C210.417 303.9 210.817 303.5 211.317 303.5C211.717 303.5 212.117 303.9 212.117 304.4Z" fill="#003644"/>
<path d="M213.017 310C213.017 311.2 212.117 312.1 211.017 312.1C209.917 312.1 209.117 311.2 209.117 310C209.117 308.8 210.017 307.9 211.117 307.9C212.217 307.8 213.017 308.8 213.017 310Z" fill="#F8F8F8"/>
<path d="M211.917 310C211.917 310.5 211.517 310.9 211.017 310.9C210.517 310.9 210.217 310.5 210.217 310C210.217 309.5 210.617 309.1 211.117 309.1C211.517 309 211.917 309.5 211.917 310Z" fill="#003644"/>
<path d="M212.117 315.3C212.117 316 211.517 316.6 210.917 316.6C210.317 316.6 209.717 316 209.817 315.3C209.817 314.6 210.417 314 211.017 314C211.617 314 212.117 314.6 212.117 315.3Z" fill="#FFB875"/>
<path d="M183.917 359.4C180.717 363.1 146.417 421.5 131.517 430.5C116.617 439.5 111.617 421.1 113.317 409.1C115.017 397.1 139.317 379.1 146.817 370.7C156.417 359.9 167.417 347.1 169.017 342.9C170.517 338.7 167.117 329 170.717 325C174.317 321 179.117 309.9 179.117 309.9L179.817 325.7C179.817 325.7 189.817 320.7 195.517 318.1C201.217 315.5 207.417 315.1 208.817 314.2C210.217 313.3 218.317 305 219.517 304.6C220.717 304.2 222.417 308.2 219.517 312.6C219.517 312.6 222.117 314.7 218.917 320.8C218.917 320.8 221.217 323.4 218.317 328.9C218.317 328.9 219.917 330.9 219.517 333.5C219.117 336.1 216.217 341.9 214.617 343.5C212.817 345 186.517 356.3 183.917 359.4Z" fill="#FFA07F"/>
<path d="M219.417 312.4C219.417 312.4 214.317 319.1 213.017 321.1C211.717 323.1 211.117 325.7 209.117 326.2C207.117 326.7 205.317 327 205.317 327" stroke="#FF8E77" stroke-width="1.5" stroke-miterlimit="10" stroke-linecap="round" stroke-linejoin="round"/>
<path d="M218.917 320.7C218.917 320.7 215.417 326.1 214.517 328.1C213.617 330 213.017 331.6 212.417 332.2C211.717 332.8 207.717 333.9 207.717 333.9" stroke="#FF8E77" stroke-width="1.5" stroke-miterlimit="10" stroke-linecap="round" stroke-linejoin="round"/>
<path d="M218.317 328.8C218.317 328.8 215.117 335.5 214.517 337C214.017 338.5 213.817 339.1 212.117 339.6" stroke="#FF8E77" stroke-width="1.5" stroke-miterlimit="10" stroke-linecap="round" stroke-linejoin="round"/>
<path d="M211.517 261.1C200.817 259.3 182.017 261.1 182.017 265.5C182.017 269.8 193.217 277.6 198.517 276.8C203.717 276.1 222.317 262.9 211.517 261.1Z" fill="#691205"/>
<mask id="mask0_27_2200" style="mask-type:luminance" maskUnits="userSpaceOnUse" x="182" y="260" width="33" height="17">
<path d="M211.517 261.1C200.817 259.3 182.017 261.1 182.017 265.5C182.017 269.8 193.217 277.6 198.517 276.8C203.717 276.1 222.317 262.9 211.517 261.1Z" fill="white"/>
</mask>
<g mask="url(#mask0_27_2200)">
<path d="M202.064 286.204C209.906 286.161 216.244 282.5 216.22 278.027C216.195 273.553 209.818 269.961 201.976 270.004C194.133 270.046 187.795 273.707 187.82 278.181C187.844 282.654 194.221 286.246 202.064 286.204Z" fill="#D53F36"/>
</g>
<mask id="mask1_27_2200" style="mask-type:luminance" maskUnits="userSpaceOnUse" x="182" y="260" width="33" height="17">
<path d="M211.517 261.1C200.817 259.3 182.017 261.1 182.017 265.5C182.017 269.8 193.217 277.6 198.517 276.8C203.717 276.1 222.317 262.9 211.517 261.1Z" fill="white"/>
</mask>
<g mask="url(#mask1_27_2200)">
<path d="M196.264 265.103C204.106 265.061 210.444 261.4 210.42 256.926C210.396 252.453 204.019 248.861 196.176 248.903C188.334 248.946 181.996 252.606 182.02 257.08C182.044 261.553 188.421 265.146 196.264 265.103Z" fill="white"/>
</g>
<path d="M192.017 255.7C192.217 256.8 197.517 256.8 198.117 256.8C198.717 256.8 204.017 256.8 204.217 255.7C204.317 254.8 201.217 253.3 198.117 253.3C195.017 253.3 191.917 254.9 192.017 255.7Z" fill="#FF8E77"/>
<path d="M161.217 247.1C163.017 245 164.817 242.3 166.417 238.9C171.117 228.7 170.017 219.1 169.117 214.5C174.717 216.2 181.417 217.6 189.117 218.3C204.117 219.6 216.617 217.3 225.217 214.9C224.617 218.3 224.217 223.2 225.217 228.9C226.717 237.6 230.717 243.8 233.017 247C235.017 243.4 237.717 237.8 239.317 230.6C241.217 222.2 243.717 210.8 237.217 204C236.117 202.8 231.717 198.7 222.217 198.9C222.017 196.4 221.017 190.9 216.717 186.8C212.217 182.6 206.717 182.3 199.917 182C190.717 181.5 183.817 183.7 178.417 185.5C169.617 188.3 165.517 191.4 164.517 192.1C162.517 193.6 159.417 196 157.117 200C154.517 204.4 153.917 209.2 154.317 216.2C154.817 223 156.117 233.8 161.217 247.1Z" fill="#131313"/>
<path d="M232.317 188.9C232.317 188.9 221.517 189.2 222.317 199L232.317 188.9Z" fill="#131313"/>
<path d="M222.217 199.1L233.317 197.6C233.317 197.6 226.517 192.6 222.217 199.1Z" fill="#131313"/>
<path d="M237.217 246.7L231.317 253.3L234.217 257.7" stroke="#FF8E77" stroke-width="1.5" stroke-miterlimit="10" stroke-linecap="round"/>
<path d="M157.017 246.7L163.017 253.3L160.017 257.7" stroke="#FF8E77" stroke-width="1.5" stroke-miterlimit="10" stroke-linecap="round"/>
</g>
<defs>
<clipPath id="clip0_27_2200">
<rect width="171" height="219" fill="white" transform="translate(110 175)"/>
</clipPath>
</defs>
</svg>
