<svg width="393" height="464" viewBox="0 0 393 464" fill="none" xmlns="http://www.w3.org/2000/svg">
<path d="M400.6 254.5C400.6 297.8 387.5 338 365 371.4C352 390.7 335.8 407.7 317.3 421.7C315.7 422.9 314.1 424.1 312.5 425.2C305.5 430.2 298.2 434.8 290.6 438.9C275.2 447.2 258.7 453.7 241.2 457.9C240.2 458.2 239.1 458.4 238.1 458.6C234.6 459.4 231.1 460.1 227.5 460.7C215.7 462.8 203.5 463.9 191.1 463.9C183.3 463.9 175.6 463.5 168 462.6C164.6 462.2 161.2 461.8 157.9 461.2C57.9 445.4 -18.4 358.9 -18.4 254.5C-18.4 138.8 75.4 45 191.1 45C306.8 45 400.6 138.8 400.6 254.5Z" fill="#E6F2FF"/>
<path fill-rule="evenodd" clip-rule="evenodd" d="M360.227 266.014C358.194 265.244 355.698 265.006 352.605 265.442C352.195 265.5 351.816 265.214 351.758 264.804C351.7 264.394 351.986 264.015 352.396 263.957C355.671 263.495 358.433 263.73 360.758 264.612C361.146 264.758 361.341 265.191 361.194 265.579C361.047 265.966 360.614 266.161 360.227 266.014ZM345.379 266.526C345.522 266.915 345.323 267.346 344.935 267.489C342.674 268.322 340.207 269.397 337.513 270.731C337.142 270.915 336.692 270.763 336.508 270.392C336.324 270.021 336.476 269.571 336.847 269.387C339.58 268.033 342.097 266.937 344.416 266.082C344.805 265.939 345.236 266.138 345.379 266.526ZM366.104 269.895C366.458 269.68 366.919 269.793 367.134 270.148C368.444 272.31 369.401 274.937 370.125 277.909C370.223 278.312 369.976 278.718 369.574 278.816C369.171 278.914 368.765 278.667 368.667 278.264C367.965 275.379 367.055 272.911 365.851 270.925C365.637 270.571 365.75 270.11 366.104 269.895ZM330.73 273.505C330.936 273.864 330.813 274.323 330.454 274.53C329.3 275.195 328.112 275.898 326.889 276.641C325.759 277.328 324.644 278.022 323.544 278.722C323.194 278.945 322.731 278.842 322.508 278.492C322.286 278.143 322.389 277.679 322.738 277.457C323.847 276.751 324.971 276.051 326.111 275.359C327.342 274.61 328.54 273.901 329.705 273.23C330.064 273.023 330.523 273.147 330.73 273.505ZM317.21 282.023C317.447 282.363 317.364 282.83 317.024 283.067C314.857 284.577 312.748 286.115 310.692 287.677C310.362 287.928 309.891 287.864 309.641 287.534C309.39 287.204 309.454 286.734 309.784 286.483C311.856 284.908 313.982 283.359 316.166 281.836C316.506 281.6 316.974 281.683 317.21 282.023ZM370.686 285.373C371.097 285.324 371.471 285.618 371.52 286.029C371.826 288.597 372.06 291.323 372.261 294.168C372.29 294.581 371.979 294.939 371.565 294.969C371.152 294.998 370.794 294.687 370.764 294.273C370.564 291.441 370.333 288.741 370.03 286.207C369.981 285.796 370.275 285.422 370.686 285.373ZM-28.1962 291.811C-28.1891 291.397 -27.8477 291.067 -27.4336 291.074C-24.6908 291.12 -21.9662 291.24 -19.2701 291.439C-18.857 291.47 -18.547 291.83 -18.5776 292.243C-18.6081 292.656 -18.9678 292.966 -19.3809 292.935C-22.0467 292.738 -24.7429 292.62 -27.459 292.574C-27.8731 292.567 -28.2032 292.225 -28.1962 291.811ZM-34.8316 291.868C-34.818 292.282 -35.1426 292.629 -35.5566 292.642C-38.2482 292.731 -40.9488 292.882 -43.6484 293.09C-44.0614 293.121 -44.422 292.812 -44.4537 292.399C-44.4855 291.986 -44.1764 291.626 -43.7635 291.594C-41.0431 291.385 -38.3206 291.232 -35.6058 291.143C-35.1918 291.13 -34.8452 291.454 -34.8316 291.868ZM304.652 291.487C304.916 291.806 304.87 292.279 304.551 292.542C302.515 294.222 300.532 295.927 298.595 297.654C298.286 297.929 297.812 297.902 297.536 297.593C297.26 297.284 297.288 296.81 297.597 296.534C299.547 294.795 301.545 293.078 303.596 291.385C303.916 291.122 304.388 291.167 304.652 291.487ZM-11.9756 292.945C-11.9177 292.535 -11.5383 292.249 -11.1282 292.307C-8.39297 292.693 -5.69991 293.173 -3.061 293.757C-2.65657 293.847 -2.40125 294.247 -2.49072 294.651C-2.5802 295.056 -2.98059 295.311 -3.38503 295.222C-5.98342 294.647 -8.63815 294.173 -11.3377 293.792C-11.7478 293.734 -12.0334 293.355 -11.9756 292.945ZM-51.0578 293.041C-51.0098 293.452 -51.3044 293.825 -51.7158 293.873C-54.4097 294.187 -57.0927 294.551 -59.7548 294.959C-60.1642 295.021 -60.547 294.74 -60.6097 294.331C-60.6724 293.921 -60.3913 293.539 -59.9818 293.476C-57.3029 293.066 -54.6021 292.699 -51.8896 292.383C-51.4782 292.335 -51.1057 292.629 -51.0578 293.041ZM-67.1553 295.446C-67.079 295.853 -67.3473 296.245 -67.7544 296.321C-70.4401 296.824 -73.0929 297.366 -75.702 297.939C-76.1065 298.028 -76.5065 297.772 -76.5954 297.367C-76.6843 296.963 -76.4284 296.563 -76.0238 296.474C-73.4001 295.897 -70.732 295.353 -68.0305 294.847C-67.6233 294.771 -67.2315 295.039 -67.1553 295.446ZM3.91083 296.367C4.03685 295.973 4.45888 295.755 4.85346 295.881C7.49068 296.723 10.0554 297.688 12.5336 298.786C12.9123 298.954 13.0834 299.397 12.9157 299.775C12.7479 300.154 12.3049 300.325 11.9262 300.157C9.50064 299.083 6.98656 298.137 4.39709 297.31C4.00252 297.184 3.78481 296.762 3.91083 296.367ZM-83.0435 298.886C-82.9425 299.288 -83.1863 299.696 -83.588 299.797C-86.2751 300.472 -88.899 301.175 -91.4466 301.897C-91.8451 302.01 -92.2597 301.779 -92.3726 301.38C-92.4856 300.982 -92.254 300.567 -91.8555 300.454C-89.2939 299.728 -86.6555 299.021 -83.9537 298.342C-83.552 298.241 -83.1445 298.485 -83.0435 298.886ZM371.971 301.58C372.384 301.556 372.739 301.872 372.763 302.286L372.774 302.488C372.923 305.067 373.075 307.707 373.255 310.391C373.282 310.804 372.97 311.162 372.556 311.19C372.143 311.217 371.786 310.905 371.758 310.491C371.577 307.797 371.425 305.148 371.276 302.568L371.265 302.372C371.241 301.959 371.557 301.604 371.971 301.58ZM292.858 301.919C293.144 302.218 293.134 302.693 292.835 302.979C290.935 304.799 289.079 306.639 287.26 308.498C286.971 308.794 286.496 308.799 286.2 308.509C285.904 308.22 285.898 307.745 286.188 307.449C288.017 305.579 289.885 303.728 291.797 301.896C292.096 301.61 292.571 301.62 292.858 301.919ZM18.8064 302.825C19.0202 302.47 19.4811 302.356 19.8359 302.57C22.1945 303.991 24.4455 305.563 26.5735 307.296C26.8946 307.558 26.9429 308.03 26.6813 308.351C26.4197 308.672 25.9473 308.721 25.6261 308.459C23.5556 306.772 21.3628 305.241 19.0619 303.855C18.707 303.641 18.5927 303.18 18.8064 302.825ZM-98.7199 303.283C-98.5948 303.678 -98.8135 304.099 -99.2084 304.225C-101.9 305.077 -104.475 305.942 -106.914 306.805C-107.304 306.943 -107.733 306.739 -107.871 306.348C-108.009 305.958 -107.805 305.529 -107.414 305.391C-104.959 304.522 -102.369 303.652 -99.6613 302.795C-99.2665 302.669 -98.845 302.888 -98.7199 303.283ZM-114.055 308.671C-113.901 309.055 -114.088 309.492 -114.473 309.645C-115.779 310.167 -117.024 310.683 -118.204 311.189C-118.585 311.353 -119.026 311.177 -119.189 310.796C-119.353 310.415 -119.176 309.974 -118.796 309.811C-117.603 309.299 -116.346 308.779 -115.029 308.252C-114.645 308.099 -114.208 308.286 -114.055 308.671ZM31.4857 312.908C31.7929 312.63 32.2672 312.654 32.545 312.961C34.3615 314.97 36.0457 317.141 37.5835 319.482C37.8109 319.828 37.7146 320.293 37.3684 320.521C37.0222 320.748 36.5572 320.652 36.3298 320.305C34.8345 318.029 33.1975 315.92 31.4323 313.967C31.1545 313.66 31.1784 313.186 31.4857 312.908ZM281.815 313.125C282.119 313.406 282.138 313.88 281.857 314.185C280.073 316.115 278.322 318.061 276.599 320.02C276.325 320.331 275.851 320.361 275.54 320.088C275.229 319.814 275.199 319.34 275.472 319.029C277.203 317.062 278.962 315.107 280.755 313.167C281.036 312.862 281.51 312.844 281.815 313.125ZM373.078 317.803C373.491 317.764 373.857 318.067 373.896 318.48C374.147 321.151 374.448 323.841 374.82 326.53C374.876 326.94 374.59 327.319 374.179 327.375C373.769 327.432 373.39 327.145 373.334 326.735C372.958 324.02 372.656 321.309 372.402 318.62C372.363 318.208 372.666 317.842 373.078 317.803ZM271.381 324.914C271.697 325.182 271.737 325.655 271.469 325.971C269.774 327.975 268.101 329.989 266.441 332.011C266.178 332.331 265.706 332.377 265.386 332.115C265.066 331.852 265.019 331.379 265.282 331.059C266.945 329.033 268.624 327.013 270.324 325.003C270.591 324.686 271.065 324.647 271.381 324.914ZM40.5928 326.326C40.9684 326.151 41.4145 326.314 41.5891 326.69C42.7066 329.093 43.6946 331.639 44.5436 334.335C44.668 334.73 44.4486 335.151 44.0535 335.276C43.6585 335.4 43.2373 335.181 43.1129 334.786C42.2828 332.15 41.3181 329.664 40.229 327.322C40.0543 326.947 40.2172 326.501 40.5928 326.326ZM375.272 333.916C375.679 333.834 376.074 334.098 376.155 334.504C376.684 337.148 377.304 339.77 378.036 342.353C378.149 342.752 377.918 343.166 377.519 343.279C377.121 343.392 376.706 343.161 376.593 342.762C375.849 340.137 375.22 337.476 374.684 334.798C374.603 334.392 374.866 333.997 375.272 333.916ZM261.37 337.059C261.693 337.319 261.744 337.791 261.484 338.114C259.838 340.158 258.2 342.206 256.564 344.255C256.306 344.578 255.834 344.631 255.51 344.373C255.187 344.114 255.134 343.642 255.392 343.319C257.029 341.269 258.668 339.22 260.315 337.173C260.575 336.851 261.047 336.8 261.37 337.059ZM45.6709 341.691C46.0775 341.612 46.4713 341.878 46.5505 342.284C46.8113 343.623 47.0423 344.992 47.2425 346.394C47.4284 347.695 47.6257 348.983 47.8344 350.256C47.9013 350.665 47.6242 351.051 47.2154 351.118C46.8067 351.185 46.421 350.908 46.3541 350.499C46.1438 349.215 45.9449 347.918 45.7576 346.606C45.5608 345.229 45.334 343.884 45.0782 342.571C44.999 342.165 45.2643 341.771 45.6709 341.691ZM251.534 349.35C251.858 349.609 251.91 350.081 251.651 350.405C250.011 352.452 248.366 354.498 246.71 356.538C246.449 356.86 245.976 356.909 245.655 356.648C245.333 356.387 245.284 355.914 245.545 355.593C247.199 353.556 248.841 351.513 250.48 349.467C250.739 349.144 251.211 349.091 251.534 349.35ZM379.628 349.564C380.013 349.412 380.449 349.602 380.6 349.987C381.091 351.232 381.616 352.462 382.176 353.675C382.73 354.783 383.31 355.865 383.913 356.916C384.119 357.276 383.995 357.734 383.636 357.94C383.277 358.146 382.818 358.022 382.612 357.663C381.992 356.582 381.398 355.472 380.829 354.335L380.824 354.325L380.819 354.315C380.244 353.071 379.707 351.811 379.205 350.537C379.053 350.152 379.242 349.716 379.628 349.564ZM468.045 349.985C468.33 350.285 468.316 350.76 468.015 351.045C467.087 351.923 466.165 352.779 465.25 353.611C464.943 353.89 464.469 353.868 464.19 353.562C463.911 353.255 463.934 352.781 464.24 352.502C465.148 351.676 466.063 350.827 466.985 349.955C467.286 349.67 467.76 349.684 468.045 349.985ZM459.721 357.461C459.987 357.779 459.944 358.252 459.626 358.517C457.626 360.184 455.662 361.739 453.733 363.185C453.401 363.433 452.931 363.366 452.683 363.034C452.434 362.703 452.502 362.233 452.833 361.984C454.741 360.555 456.685 359.017 458.665 357.365C458.983 357.1 459.456 357.143 459.721 357.461ZM48.3621 357.29C48.7675 357.205 49.1649 357.465 49.2496 357.87C49.7875 360.446 50.3746 362.958 51.0096 365.406C51.1136 365.807 50.8729 366.216 50.472 366.32C50.071 366.424 49.6617 366.184 49.5577 365.783C48.9165 363.311 48.3239 360.775 47.7812 358.177C47.6966 357.772 47.9566 357.374 48.3621 357.29ZM241.613 361.571C241.931 361.836 241.974 362.308 241.709 362.627C240.032 364.642 238.337 366.649 236.617 368.644C236.347 368.958 235.874 368.993 235.56 368.723C235.246 368.452 235.211 367.979 235.481 367.665C237.194 365.677 238.884 363.677 240.556 361.667C240.821 361.349 241.294 361.306 241.613 361.571ZM386.923 362.9C387.252 362.647 387.722 362.709 387.975 363.037C389.499 365.019 391.138 366.835 392.892 368.462C393.196 368.743 393.213 369.218 392.932 369.521C392.65 369.825 392.176 369.843 391.872 369.561C390.051 367.874 388.357 365.994 386.786 363.952C386.534 363.623 386.595 363.152 386.923 362.9ZM447.823 366.452C448.05 366.798 447.953 367.263 447.606 367.49C445.418 368.924 443.277 370.213 441.184 371.362C440.821 371.561 440.365 371.428 440.166 371.065C439.966 370.702 440.099 370.246 440.462 370.047C442.519 368.918 444.626 367.65 446.784 366.236C447.131 366.009 447.596 366.105 447.823 366.452ZM52.2032 372.346C52.598 372.221 53.0196 372.44 53.1447 372.834C53.9385 375.34 54.7867 377.769 55.6877 380.122C55.8359 380.509 55.6424 380.943 55.2555 381.091C54.8687 381.239 54.4351 381.045 54.2869 380.659C53.3751 378.277 52.5171 375.82 51.7147 373.287C51.5896 372.893 51.8083 372.471 52.2032 372.346ZM397.671 373.12C397.886 372.766 398.347 372.652 398.701 372.867C400.775 374.121 402.976 375.142 405.306 375.899C405.699 376.028 405.915 376.451 405.787 376.845C405.659 377.239 405.235 377.454 404.841 377.326C402.399 376.531 400.093 375.462 397.925 374.15C397.571 373.936 397.457 373.475 397.671 373.12ZM434.815 373.684C434.977 374.065 434.8 374.505 434.419 374.668C431.979 375.709 429.61 376.55 427.311 377.203C426.913 377.316 426.498 377.085 426.385 376.686C426.272 376.288 426.503 375.873 426.902 375.76C429.135 375.125 431.445 374.306 433.83 373.288C434.211 373.126 434.652 373.303 434.815 373.684ZM231.349 373.504C231.657 373.782 231.681 374.256 231.404 374.564C229.649 376.51 227.864 378.442 226.043 380.356C225.758 380.656 225.283 380.668 224.983 380.383C224.683 380.097 224.671 379.623 224.956 379.322C226.768 377.419 228.543 375.497 230.29 373.559C230.567 373.252 231.041 373.227 231.349 373.504ZM420.543 377.868C420.59 378.28 420.295 378.651 419.883 378.699C417.249 379.002 414.721 379.038 412.299 378.829C411.886 378.794 411.58 378.43 411.616 378.018C411.651 377.605 412.015 377.299 412.427 377.335C414.745 377.535 417.172 377.5 419.712 377.209C420.123 377.161 420.495 377.457 420.543 377.868ZM220.526 384.928C220.817 385.223 220.814 385.698 220.519 385.989C218.659 387.827 216.757 389.645 214.809 391.44C214.504 391.721 214.03 391.701 213.749 391.397C213.468 391.092 213.488 390.618 213.792 390.337C215.727 388.554 217.616 386.748 219.465 384.922C219.76 384.631 220.235 384.634 220.526 384.928ZM57.6956 386.896C58.0718 386.723 58.5172 386.887 58.6905 387.264C59.7917 389.655 60.9534 391.954 62.1734 394.161C62.3738 394.523 62.2424 394.979 61.8799 395.18C61.5174 395.38 61.0611 395.249 60.8607 394.886C59.6223 392.646 58.444 390.314 57.3281 387.891C57.1548 387.515 57.3193 387.069 57.6956 386.896ZM208.983 395.627C209.252 395.942 209.215 396.416 208.9 396.685C206.913 398.382 204.877 400.054 202.786 401.7C202.461 401.956 201.989 401.9 201.733 401.574C201.477 401.249 201.533 400.777 201.858 400.521C203.933 398.888 205.954 397.228 207.926 395.544C208.241 395.275 208.714 395.312 208.983 395.627ZM65.1268 400.536C65.4717 400.306 65.9372 400.4 66.1666 400.745C67.6204 402.931 69.1402 405.008 70.7231 406.974C70.9829 407.296 70.932 407.768 70.6094 408.028C70.2868 408.288 69.8146 408.237 69.5548 407.914C67.9424 405.912 66.3957 403.798 64.9175 401.575C64.6882 401.23 64.7818 400.765 65.1268 400.536ZM196.653 405.406C196.895 405.741 196.819 406.21 196.484 406.453C194.374 407.975 192.21 409.471 189.986 410.937C189.64 411.165 189.175 411.07 188.947 410.724C188.719 410.378 188.814 409.913 189.16 409.685C191.366 408.23 193.513 406.747 195.606 405.236C195.941 404.994 196.41 405.07 196.653 405.406ZM74.7798 412.715C75.0748 412.424 75.5496 412.428 75.8404 412.723C77.6684 414.577 79.5654 416.304 81.5279 417.903C81.849 418.165 81.8973 418.637 81.6357 418.959C81.374 419.28 80.9016 419.328 80.5805 419.066C78.5747 417.432 76.6375 415.668 74.7721 413.776C74.4814 413.481 74.4848 413.006 74.7798 412.715ZM183.558 414.114C183.771 414.469 183.656 414.93 183.301 415.143C182.173 415.82 181.03 416.489 179.872 417.151C178.722 417.808 177.575 418.446 176.431 419.065C176.067 419.262 175.612 419.126 175.415 418.762C175.217 418.398 175.353 417.943 175.717 417.745C176.851 417.133 177.988 416.5 179.128 415.849C180.277 415.192 181.41 414.528 182.529 413.857C182.884 413.644 183.345 413.759 183.558 414.114ZM169.824 421.611C170.003 421.985 169.845 422.433 169.471 422.611C167.075 423.757 164.697 424.815 162.337 425.787C161.954 425.945 161.516 425.762 161.358 425.379C161.2 424.996 161.383 424.558 161.766 424.4C164.099 423.439 166.453 422.392 168.824 421.258C169.198 421.079 169.646 421.238 169.824 421.611ZM86.7193 422.636C86.942 422.287 87.4057 422.185 87.7549 422.407C89.9266 423.792 92.1656 425.039 94.4684 426.144C94.8418 426.324 94.9991 426.772 94.8198 427.145C94.6405 427.519 94.1924 427.676 93.819 427.497C91.4618 426.365 89.1703 425.089 86.9483 423.672C86.5991 423.449 86.4966 422.986 86.7193 422.636ZM155.491 427.593C155.625 427.985 155.416 428.411 155.024 428.545C152.498 429.409 149.996 430.171 147.52 430.832C147.119 430.939 146.708 430.701 146.601 430.301C146.495 429.901 146.732 429.49 147.133 429.383C149.574 428.731 152.044 427.979 154.538 427.126C154.93 426.992 155.357 427.201 155.491 427.593ZM100.633 429.516C100.766 429.124 101.192 428.913 101.584 429.046C103.994 429.864 106.464 430.542 108.991 431.079C109.396 431.165 109.655 431.563 109.568 431.968C109.482 432.374 109.084 432.632 108.679 432.546C106.096 431.997 103.569 431.304 101.102 430.467C100.71 430.334 100.5 429.908 100.633 429.516ZM140.48 431.693C140.556 432.1 140.288 432.492 139.881 432.568C137.266 433.056 134.683 433.428 132.136 433.683C131.724 433.724 131.356 433.423 131.315 433.011C131.274 432.599 131.574 432.231 131.986 432.19C134.49 431.939 137.03 431.574 139.605 431.093C140.013 431.017 140.404 431.286 140.48 431.693ZM115.78 432.925C115.82 432.513 116.187 432.212 116.6 432.252C119.111 432.499 121.672 432.616 124.278 432.602C124.692 432.599 125.03 432.933 125.032 433.348C125.034 433.762 124.7 434.099 124.286 434.102C121.63 434.116 119.018 433.997 116.453 433.745C116.041 433.705 115.739 433.338 115.78 432.925Z" fill="#007AFF"/>
<path fill-rule="evenodd" clip-rule="evenodd" d="M410.5 0.25C410.914 0.25 411.25 0.585786 411.25 1C411.25 2.09148 411.114 3.40647 410.856 4.91063C410.786 5.3189 410.399 5.59316 409.99 5.52322C409.582 5.45327 409.308 5.06561 409.378 4.65734C409.627 3.20163 409.75 1.9771 409.75 1C409.75 0.585786 410.086 0.25 410.5 0.25ZM408.489 11.6549C408.886 11.7719 409.113 12.1888 408.996 12.5862C408.328 14.8563 407.517 17.3388 406.57 19.9987C406.431 20.3889 406.002 20.5927 405.612 20.4539C405.222 20.315 405.018 19.8861 405.157 19.4958C406.096 16.8579 406.898 14.402 407.557 12.1625C407.674 11.7652 408.091 11.5379 408.489 11.6549ZM403.371 26.3695C403.756 26.5232 403.943 26.9596 403.789 27.3443C402.863 29.6626 401.856 32.0733 400.774 34.5593C400.608 34.9391 400.167 35.1129 399.787 34.9475C399.407 34.7821 399.233 34.3402 399.399 33.9604C400.475 31.4878 401.476 29.0912 402.396 26.7876C402.55 26.403 402.986 26.2158 403.371 26.3695ZM397.205 40.6626C397.581 40.8381 397.743 41.2844 397.567 41.6597C396.493 43.9586 395.361 46.3039 394.176 48.6842C393.992 49.0551 393.542 49.206 393.171 49.0214C392.8 48.8368 392.649 48.3866 392.834 48.0158C394.013 45.6464 395.139 43.3122 396.208 41.0245C396.384 40.6492 396.83 40.4872 397.205 40.6626ZM390.302 54.6148C390.669 54.8082 390.809 55.2619 390.616 55.6282C389.418 57.8968 388.176 60.1861 386.891 62.487C386.689 62.8487 386.232 62.9781 385.871 62.7762C385.509 62.5742 385.38 62.1174 385.582 61.7557C386.861 59.4653 388.097 57.1863 389.289 54.928C389.482 54.5617 389.936 54.4215 390.302 54.6148ZM382.747 68.2165C383.104 68.427 383.223 68.8869 383.012 69.2436C381.701 71.4654 380.352 73.6897 378.967 75.908C378.747 76.2594 378.285 76.3664 377.933 76.147C377.582 75.9277 377.475 75.465 377.694 75.1137C379.072 72.9062 380.415 70.6926 381.72 68.4811C381.931 68.1244 382.391 68.0059 382.747 68.2165ZM374.538 81.4326C374.883 81.6611 374.978 82.1264 374.75 82.4719C373.317 84.6383 371.851 86.7913 370.354 88.9228C370.116 89.2617 369.648 89.3435 369.309 89.1054C368.971 88.8674 368.889 88.3996 369.127 88.0606C370.616 85.941 372.073 83.7997 373.499 81.6445C373.727 81.299 374.192 81.2041 374.538 81.4326ZM365.62 94.1949C365.952 94.4432 366.019 94.9132 365.771 95.2448C364.206 97.3347 362.611 99.3952 360.987 101.418C360.728 101.741 360.256 101.793 359.933 101.534C359.61 101.275 359.558 100.802 359.817 100.479C361.43 98.47 363.015 96.4228 364.57 94.3456C364.818 94.0141 365.288 93.9466 365.62 94.1949ZM203.702 102.076C200.883 101.906 198.174 101.992 195.571 102.312C195.16 102.363 194.786 102.07 194.735 101.659C194.685 101.248 194.977 100.874 195.388 100.823C198.084 100.492 200.884 100.403 203.793 100.579C204.206 100.604 204.521 100.959 204.496 101.373C204.471 101.786 204.116 102.101 203.702 102.076ZM211.26 102.338C211.349 101.934 211.75 101.678 212.154 101.767C214.752 102.34 217.426 103.112 220.18 104.096C220.57 104.236 220.773 104.665 220.634 105.055C220.495 105.445 220.065 105.648 219.675 105.509C216.977 104.545 214.363 103.791 211.831 103.232C211.427 103.143 211.171 102.743 211.26 102.338ZM188.084 103.149C188.214 103.543 188.001 103.967 187.608 104.097C185.009 104.956 182.526 106.063 180.15 107.389C179.789 107.591 179.332 107.461 179.13 107.1C178.928 106.738 179.058 106.281 179.419 106.079C181.873 104.71 184.444 103.564 187.137 102.673C187.53 102.543 187.954 102.756 188.084 103.149ZM355.913 106.361C356.226 106.632 356.26 107.106 355.989 107.419C354.272 109.402 352.527 111.338 350.757 113.218C350.473 113.519 349.998 113.533 349.697 113.249C349.395 112.965 349.381 112.491 349.665 112.189C351.42 110.326 353.151 108.405 354.855 106.437C355.126 106.124 355.6 106.09 355.913 106.361ZM226.913 107.681C227.092 107.307 227.539 107.148 227.913 107.327C230.324 108.475 232.793 109.778 235.319 111.244C235.678 111.452 235.799 111.911 235.592 112.269C235.384 112.627 234.925 112.749 234.567 112.541C232.073 111.095 229.641 109.811 227.268 108.681C226.894 108.503 226.735 108.055 226.913 107.681ZM173.493 110.914C173.752 111.238 173.699 111.71 173.376 111.968C171.271 113.653 169.262 115.518 167.346 117.536C167.06 117.837 166.586 117.849 166.285 117.564C165.985 117.279 165.973 116.804 166.258 116.504C168.217 114.44 170.275 112.529 172.439 110.797C172.762 110.538 173.234 110.591 173.493 110.914ZM241.362 115.886C241.593 115.542 242.059 115.45 242.403 115.681C244.623 117.172 246.886 118.783 249.192 120.519C249.523 120.769 249.589 121.239 249.34 121.57C249.091 121.901 248.621 121.967 248.29 121.718C246.004 119.997 243.763 118.401 241.567 116.926C241.223 116.696 241.131 116.23 241.362 115.886ZM345.287 117.716C345.575 118.014 345.566 118.489 345.268 118.776C343.37 120.607 341.445 122.367 339.495 124.047C339.181 124.318 338.708 124.282 338.437 123.969C338.167 123.655 338.202 123.181 338.516 122.911C340.443 121.25 342.347 119.509 344.227 117.697C344.525 117.409 345 117.418 345.287 117.716ZM161.889 122.756C162.219 123.007 162.283 123.478 162.032 123.807C160.39 125.965 158.827 128.234 157.337 130.593C157.116 130.943 156.653 131.048 156.303 130.827C155.952 130.605 155.848 130.142 156.069 129.792C157.58 127.4 159.168 125.094 160.838 122.899C161.089 122.569 161.56 122.506 161.889 122.756ZM254.67 125.78C254.934 125.461 255.407 125.416 255.726 125.68C256.805 126.57 257.892 127.488 258.989 128.432C260.009 129.309 261.028 130.142 262.048 130.932C262.375 131.186 262.435 131.657 262.182 131.984C261.928 132.312 261.457 132.371 261.129 132.118C260.089 131.312 259.049 130.462 258.011 129.568C256.921 128.631 255.842 127.72 254.771 126.836C254.452 126.572 254.406 126.1 254.67 125.78ZM333.555 127.915C333.805 128.245 333.738 128.716 333.408 128.965C331.288 130.562 329.143 132.059 326.974 133.443C326.625 133.666 326.161 133.563 325.939 133.214C325.716 132.865 325.818 132.401 326.167 132.178C328.301 130.817 330.414 129.343 332.505 127.767C332.836 127.518 333.306 127.584 333.555 127.915ZM267.333 135.537C267.548 135.183 268.009 135.069 268.363 135.284C270.633 136.657 272.901 137.826 275.163 138.804C275.544 138.968 275.719 139.41 275.555 139.79C275.39 140.17 274.949 140.345 274.569 140.181C272.241 139.175 269.913 137.974 267.587 136.567C267.232 136.353 267.119 135.892 267.333 135.537ZM320.494 136.353C320.683 136.722 320.538 137.174 320.17 137.363C317.799 138.581 315.403 139.656 312.987 140.573C312.6 140.72 312.167 140.525 312.02 140.138C311.873 139.751 312.068 139.318 312.455 139.171C314.815 138.275 317.159 137.224 319.484 136.029C319.853 135.84 320.305 135.985 320.494 136.353ZM152.879 136.714C153.244 136.91 153.381 137.365 153.185 137.73C151.889 140.142 150.658 142.615 149.487 145.129C149.312 145.505 148.866 145.668 148.491 145.493C148.115 145.318 147.953 144.872 148.127 144.496C149.309 141.959 150.553 139.46 151.864 137.02C152.06 136.655 152.514 136.518 152.879 136.714ZM281.478 141.832C281.582 141.43 281.991 141.189 282.392 141.293C284.908 141.942 287.417 142.368 289.917 142.585C290.329 142.621 290.635 142.985 290.599 143.397C290.563 143.81 290.2 144.115 289.787 144.08C287.205 143.855 284.614 143.416 282.017 142.745C281.616 142.642 281.375 142.233 281.478 141.832ZM306.016 141.986C306.111 142.389 305.861 142.792 305.457 142.887C302.88 143.491 300.283 143.903 297.671 144.108C297.258 144.14 296.897 143.832 296.864 143.419C296.832 143.006 297.14 142.645 297.553 142.612C300.086 142.414 302.608 142.014 305.115 141.426C305.518 141.332 305.922 141.582 306.016 141.986ZM145.768 151.739C146.151 151.896 146.335 152.334 146.178 152.717C145.129 155.282 144.137 157.866 143.198 160.45C143.056 160.839 142.626 161.04 142.237 160.898C141.848 160.757 141.647 160.327 141.788 159.937C142.733 157.337 143.732 154.734 144.79 152.149C144.946 151.766 145.384 151.582 145.768 151.739ZM140.021 167.339C140.415 167.467 140.63 167.891 140.501 168.285C139.629 170.959 138.81 173.61 138.041 176.214C137.923 176.612 137.506 176.838 137.109 176.721C136.712 176.604 136.485 176.187 136.602 175.789C137.375 173.173 138.198 170.509 139.075 167.819C139.204 167.426 139.627 167.211 140.021 167.339ZM135.259 183.27C135.659 183.378 135.895 183.79 135.787 184.19C135.42 185.545 135.067 186.88 134.726 188.189C134.378 189.523 133.995 190.833 133.577 192.118C133.449 192.512 133.026 192.728 132.632 192.599C132.238 192.471 132.023 192.048 132.151 191.654C132.559 190.398 132.934 189.117 133.274 187.811C133.616 186.498 133.971 185.159 134.339 183.798C134.448 183.398 134.859 183.162 135.259 183.27ZM130.217 198.712C130.592 198.888 130.753 199.335 130.576 199.71C129.403 202.204 128.084 204.585 126.631 206.85C126.408 207.198 125.944 207.3 125.595 207.076C125.246 206.852 125.145 206.388 125.369 206.04C126.787 203.83 128.073 201.507 129.219 199.071C129.395 198.696 129.842 198.535 130.217 198.712ZM-15.5994 209.049C-15.3504 208.718 -14.8802 208.652 -14.5492 208.901C-13.4683 209.713 -12.3831 210.508 -11.2938 211.283C-10.9564 211.524 -10.8777 211.992 -11.118 212.329C-11.3583 212.667 -11.8266 212.746 -12.164 212.505C-13.2638 211.722 -14.3595 210.92 -15.4507 210.099C-15.7818 209.85 -15.8483 209.38 -15.5994 209.049ZM121.684 212.362C122 212.63 122.038 213.103 121.77 213.419C120.005 215.5 118.107 217.456 116.09 219.283C115.783 219.561 115.309 219.538 115.031 219.231C114.753 218.924 114.776 218.45 115.083 218.172C117.052 216.387 118.904 214.479 120.627 212.448C120.895 212.133 121.368 212.094 121.684 212.362ZM-5.66831 215.999C-5.4462 215.649 -4.98271 215.546 -4.63308 215.768C-2.34945 217.219 -0.0525494 218.591 2.25384 219.885C2.61505 220.088 2.74352 220.545 2.54078 220.906C2.33805 221.268 1.88088 221.396 1.51967 221.193C-0.810592 219.885 -3.13089 218.499 -5.43743 217.034C-5.78706 216.812 -5.89043 216.348 -5.66831 215.999ZM109.888 223.325C110.125 223.664 110.042 224.132 109.702 224.369C107.487 225.917 105.166 227.338 102.749 228.63C102.384 228.825 101.929 228.687 101.734 228.322C101.539 227.956 101.677 227.502 102.042 227.307C104.408 226.042 106.678 224.653 108.843 223.14C109.183 222.902 109.65 222.985 109.888 223.325ZM8.3639 223.964C8.54596 223.591 8.99516 223.437 9.36722 223.62C11.8017 224.811 14.2423 225.917 16.6847 226.941C17.0667 227.101 17.2467 227.54 17.0867 227.922C16.9266 228.304 16.4872 228.484 16.1051 228.324C13.6356 227.29 11.1684 226.171 8.70793 224.967C8.33587 224.785 8.18184 224.336 8.3639 223.964ZM23.2222 230.279C23.3588 229.888 23.7866 229.682 24.1776 229.818C26.7305 230.711 29.2804 231.513 31.8224 232.225C32.2212 232.337 32.4539 232.751 32.342 233.15C32.2302 233.549 31.8162 233.782 31.4174 233.67C28.8448 232.948 26.2649 232.137 23.6827 231.234C23.2917 231.098 23.0855 230.67 23.2222 230.279ZM95.7736 231.088C95.9272 231.473 95.7398 231.909 95.3551 232.063C92.8577 233.06 90.2816 233.935 87.6361 234.688C87.2376 234.801 86.8228 234.57 86.7095 234.171C86.5963 233.773 86.8274 233.358 87.2259 233.245C89.8232 232.506 92.3506 231.647 94.7989 230.67C95.1836 230.516 95.62 230.703 95.7736 231.088ZM38.7355 234.72C38.8209 234.315 39.2186 234.056 39.624 234.141C42.2739 234.699 44.9095 235.16 47.5248 235.525C47.935 235.582 48.2212 235.961 48.1639 236.371C48.1067 236.782 47.7277 237.068 47.3175 237.011C44.6676 236.641 41.9981 236.174 39.3148 235.609C38.9095 235.523 38.6501 235.126 38.7355 234.72ZM80.3152 235.66C80.3902 236.067 80.1207 236.458 79.7133 236.533C77.0744 237.018 74.3808 237.39 71.6406 237.647C71.2282 237.686 70.8625 237.383 70.8238 236.97C70.7852 236.558 71.0882 236.192 71.5006 236.154C74.1978 235.901 76.8475 235.535 79.4419 235.058C79.8493 234.983 80.2403 235.252 80.3152 235.66ZM54.6951 237.045C54.7224 236.631 55.0796 236.319 55.493 236.346C58.1976 236.525 60.8732 236.598 63.513 236.569C63.9272 236.564 64.2667 236.896 64.2714 237.31C64.276 237.724 63.9441 238.064 63.5299 238.068C60.8508 238.099 58.1366 238.024 55.3941 237.843C54.9807 237.815 54.6678 237.458 54.6951 237.045Z" fill="#007AFF"/>
<path d="M280.5 387.3C280.5 387.3 284 310.6 282.4 308.5C280.9 306.4 256.4 274.4 256.4 274.4L241.8 314L280.5 387.3Z" fill="#007AFF"/>
<path d="M67.3 178.3C69.5 185.6 71.6 193 73.8 200.3C73.8 200.3 95.7 194.5 95.5 193.6C95.2 192.7 86.2 173.7 86.2 173.7C84 173.6 81.1 173.7 77.9 174.3C73.3 175.3 69.7 176.9 67.3 178.3Z" fill="#FFA07F"/>
<path d="M178.5 283.4L128.8 250.7L100.1 177.8L58.1 184.9C58.1 184.9 79.3 262.8 94.6 285.3C103.1 297.8 162.6 332.8 162.6 332.8L178.5 283.4Z" fill="#007AFF"/>
<path opacity="0.2" d="M115 255.4C118 254.4 121 253.3 124.1 252.3C125.8 251.8 127.3 253.7 126.1 255.1C124.8 256.7 123.7 258.4 122.8 260.3C122 262 121.7 263.9 120.9 265.6C120.5 266.4 119.3 266.2 119.2 265.3C118.9 262.7 119.7 259.8 120.9 257.3C119.5 257.8 118.1 258.3 116.7 258.8C115.4 259.3 112.4 260.8 111.6 258.6C110.9 256.6 113.7 255.8 115 255.4Z" fill="#131313"/>
<path d="M71.3 114.7C73.6 114.2 88.1 148.2 88.1 148.2C89.9 142.6 93.6 137.6 98.6 134.4L98.7 134.3C99.2 134 99.7 133.8 100.1 134.1C100.3 134.2 100.5 134.4 100.6 134.6C101.7 136.4 101.5 138.7 100.8 140.7C100.1 142.7 99 144.5 98.1 146.3C96.4 149.9 96.1 154 95.8 158C95.4 164.8 84.9375 170.656 84.9375 170.656C84.9375 170.656 85.7188 172.437 86.3594 174.109L67.3 178.5L65 170.6L60.9 167.4C58.3 164.8 47.6 131 49.6 129.7C50.1 129.3 50.7 129 51.4 128.7C52.3 128.2 53.3 127.9 53.9 127.6C54.4 127.4 54.6 127.3 54.6 127.3C54.6 127.3 55.4 126.3 56.5 125.2C57.1 124.5 57.9 123.9 58.6 123.4C59.4 122.9 60.1 122.6 60.7 122.8C61.3 123 62.6 124.8 64.2 127.3C68.2 133.4 73.9 143.4 74.3 142.6C74.8 141.5 68.1 116.9 68.1 116.9C68.1 116.9 68.5 116.2 69.4 115.6C69.8 115.2 70.4 114.9 71.3 114.7Z" fill="#FFA07F"/>
<path d="M56.4 125.2C56.7 125.8 56.9 126.4 57.2 127.1C58.9 130.7 60.9 133.8 62.4 135.9C63.8 137.9 64.9 139.1 65 139.3C64.9 139.1 64.4 137.6 63.6 135.3C62.7 132.8 61.3 129.5 59.7 125.9C59.3 125 58.9 124.2 58.5 123.4C57.8 123.9 57.1 124.6 56.4 125.2Z" fill="#FF7D6F"/>
<path d="M51.3 128.7C53.9 134.5 57 138.7 57.2 139C57.1 138.7 56.2 133.5 53.8 127.6C53.2 127.8 52.3 128.2 51.3 128.7Z" fill="#FF7D6F"/>
<path d="M290.5 438.9C275.1 447.2 258.6 453.7 241.1 457.9C240.1 458.2 239 458.4 238 458.6C234.5 459.4 231 460.1 227.4 460.7C215.6 462.8 203.4 463.9 191 463.9C183.2 463.9 175.5 463.5 167.9 462.6C164.5 462.2 161.1 461.8 157.8 461.2C157.9 451.3 157.9 438.7 157.1 425.6C156 407.9 156.9 365.2 160.1 331.1C162.3 308 165.5 288.8 169.9 283.9C168.7 281.6 168 279.1 168.1 276.4C168.1 275.2 168.3 273.9 168.7 272.5C170.6 265.9 176.9 261 183.7 260.6C184.1 260.6 184.6 260.6 185 260.6C185 260.6 185 260.6 185 260.5C185.3 255.7 187.2 251.3 190.1 247.4C191.3 245.8 192.7 244.2 194.2 242.8C197.7 239.6 201.9 237 206.4 235.4C207.5 235 208.5 234.6 209.6 234.3C214.6 232.8 219.8 232.2 225.1 232.1C228 232 231 232.1 233.9 232.2C234.4 232.2 234.9 232.2 235.4 232.3C236 232.3 236.6 232.4 237.2 232.4C237.4 232.4 237.6 232.4 237.8 232.4C238 232.4 238.3 232.4 238.5 232.5C239.3 232.5 240.1 232.6 240.8 232.7C241.9 232.8 242.9 232.9 244 233C244.4 233 244.8 233.1 245.2 233.1C245.5 233.1 245.7 233.2 246 233.2C249.9 233.7 253.8 234.7 257.1 237.1C259 238.5 260.7 240.2 261.6 242.4C265.3 250.6 258.5 258.3 252 263.6C256.3 264.7 259.5 268.1 261.2 272.1C262.6 275.3 263.1 279 262.6 282.5C262.6 282.6 262.6 282.7 262.6 282.8C262.4 283.9 262.1 285 261.8 286.1C260.8 289.2 259.2 292.1 257.2 294.8C257.4 295.1 257.5 295.4 257.6 295.6C257.7 296.1 262.2 313.5 267.5 334.4C268.3 337.4 269 340.4 269.8 343.4C273.7 358.7 277.7 374.9 280.6 387.2C280.8 388.1 281 389 281.2 389.9C281.3 390.4 281.4 390.9 281.6 391.4V391.5C283.3 398.7 284.4 404.1 284.7 406.5C285.3 411.5 287.1 421.2 289 431.1C289.5 433.8 290 436.4 290.5 438.9Z" fill="#007AFF"/>
<path opacity="0.2" d="M202.9 265.5C202.9 265.5 193.3 269.2 192.2 277.4C191.1 285.6 199.7 288.4 199.7 288.4L227.3 276.8C227.3 276.8 243.3 273.1 245.2 265.2C247.1 257.3 227.9 255.2 227.9 255.2L202.9 265.5Z" fill="#131313"/>
<g opacity="0.2">
<path d="M252 452.8C250.2 453.6 246.2 455.1 240.9 456.8C239.9 457.1 238.8 457.5 237.6 457.8C234.5 458.8 231.1 459.8 227.5 460.8C215.7 462.9 203.5 464 191.1 464C183.3 464 175.6 463.6 168 462.7C167.1 453.3 164.7 423.1 169.7 418C173.9 413.7 200.7 409.1 218.2 406.3C222.2 405.7 225.6 405.1 228.3 404.7C228.8 404.6 229.3 404.5 229.8 404.5C231.2 404.3 232.3 404.1 232.9 403.9C234.3 403.6 236.6 405.8 239.1 409.5C239.5 410.2 240 410.8 240.4 411.6C244.2 417.7 248.4 426.4 251.1 434.3C251.8 436.4 252.5 438.5 253 440.4C254.5 446.7 254.6 451.6 252 452.8Z" fill="#131313"/>
</g>
<path opacity="0.2" d="M247.7 289.1C232.8 301.6 213.2 306.8 194.8 311.7C186.8 305.6 180.5 300 175.4 291.2C175 290.6 174.2 291 174.4 291.7C177.4 300.8 186 308.2 193.4 313.8C194.1 314.3 194.8 314 195.1 313.4C213.2 310.8 235.9 304.1 249.3 291.1C250.6 290 249 288 247.7 289.1Z" fill="#131313"/>
<path d="M199.7 288.5C209.7 284.4 219.8 280.3 229.8 276.2C228.9 269.1 228.4 263.4 228.2 259.3C227.9 254.2 227.4 246 227.4 246L201.4 251.2L202.8 268C202.7 269.6 202.6 271.2 202.4 272.8C201.6 278 200.6 283.2 199.7 288.5Z" fill="#FFA07F"/>
<path d="M201.4 251.2L202.8 268C208.4 268.9 214.1 267.4 219.2 264.9C222.4 263.3 225.2 261.4 228.1 259.3C227.9 252.1 227.3 246 227.3 246L201.4 251.2Z" fill="#FF7D6F"/>
<path d="M233 247.7C233 247.7 232.1 249.6 228.7 252C228.4 252.2 228 252.5 227.6 252.7C227.6 252.7 227 253.1 226.3 253.5C215.5 259.5 206.3 260.7 206.3 260.7C199.4 261.6 192 262.6 186.4 258.1C182 254.6 180.7 249.5 179.4 244.4C178.7 241.7 178.7 240.6 178.4 227.5C178.1 213.8 177.9 208.1 180.4 200.6C180.8 199.3 181.2 198.3 181.5 197.6C183.4 194.3 186.3 190.2 191.1 187.2C204.4 178.6 224.3 183 237.1 194.8C241.4 198.7 233 247.7 233 247.7Z" fill="#FFA07F"/>
<path d="M180.5 214C180.8 213.4 184.1 207.4 187.3 207.8C188.2 207.9 190.2 208.7 190.1 209.2C190.1 209.3 190 209.4 189.9 209.4L180.5 214Z" fill="#131313"/>
<path d="M222.9 213.2C220.5 211.8 210 205.5 207.9 207.3C207.5 207.6 207.2 208.2 207.1 208.9C207.1 208.9 207.1 209.1 207.4 210.5L222.9 213.2Z" fill="#131313"/>
<path d="M192.4 233.7C192.5 234.5 193.3 235 193.7 235.2C194.5 235.7 195.3 235.7 196.5 235.6C197.4 235.6 198.6 235.5 200 234.7C200.5 234.4 200.9 234.2 201.2 233.7C201.8 232.7 201.5 231.4 201.4 231.1C200 231.7 197.7 232.5 194.9 232.1C194.4 232 193.9 231.9 193.4 231.7C192.7 232.3 192.3 233 192.4 233.7Z" fill="#FF7D6F"/>
<path d="M222.8 223.2C222.8 223.2 214.5 213.1 205.2 222C205.2 222 214 219.6 222.8 223.2Z" fill="#131313"/>
<path d="M190.2 222.3C190.2 222.3 185.5 215.8 180 221.7C180 221.7 185.1 220.1 190.2 222.3Z" fill="#131313"/>
<path d="M188.5 244.2C191.5 244.2 195.2 243.9 199.4 243.1C203.9 242.2 207.7 240.9 210.6 239.6C210.7 240.2 211.7 245.9 207.9 249.6C206.5 250.9 204.5 252 201.5 252.2C190.3 253.2 188.5 244.2 188.5 244.2Z" fill="white"/>
<path d="M195.7 172.5C195.7 172.5 210.5 165.9 224.3 172.5C238.1 179.1 240.8 188.5 240.8 188.5C240.8 188.5 251.2 190.9 253.6 196.3C255.9 201.7 250 211.3 250 211.3L195.7 172.5Z" fill="#131313"/>
<path d="M181.1 185.5C177.8 186.6 175.4 189.6 174.3 192.9C173.2 196.2 173.1 199.7 173.1 203.2C173.1 206.7 173.2 210.2 172.3 213.6C176.6 212.5 179.8 207 180.8 202.7C186.7 202.8 195.7 194.1 195.7 194.1L196.9 198.4C197.5 200.3 199.3 201.6 201.3 201.5C208.9 200.9 221 196.6 221 196.6L221.8 198.3C222.7 200.3 224.9 201.6 227.1 201.2C231.3 200.5 234.1 199 234.1 199L232.3 211C232 212.8 232.2 214.6 232.7 216.3L235.7 226.7C237.5 224.6 240.3 224.2 242.1 225.3C243.9 226.4 244 228.7 244.1 229C244.8 226.8 245.4 224.6 246.1 222.4C246.8 220.4 248 217.2 248.7 215.2L249.8 212.6C249.8 212.5 249.9 212.4 249.9 212.2C250 211.7 250.2 211 250.1 210.2C250.1 209.8 250 209.1 249.6 208.4C248.8 205.5 247.4 203.7 246.4 202.7C245.3 201.5 243.6 200.4 240.4 198C239.8 197.5 239.2 197.1 238.6 196.6C237.8 196 237.1 195.3 236.4 194.6C233.3 191.6 230.7 188.2 227.6 185.2C221.9 179.6 214.8 175.4 206.9 173.6C199.1 171.8 190.7 172.6 183.5 176.1C181.3 177.2 179.2 178.5 176.9 179.4C176.8 179.4 176.7 179.5 176.6 179.5C174.4 180.3 171.9 180.7 169.7 180.1C171.8 183.8 176.6 186.3 181.1 185.5Z" fill="#131313"/>
<path d="M212.4 178.9C212.9 182.1 212.8 185.4 212.1 188.5C216.9 187.7 221.5 185.7 225.4 182.8C220.1 178.3 213.8 174.9 207 173.3C199.8 171.7 192.1 172.2 185.3 175C189.8 177.3 194.8 178.7 199.8 178.1C198.6 179.9 197.3 181.6 196.1 183.3C201.8 183.1 207.4 181.5 212.4 178.9Z" fill="#131313"/>
<path d="M228.4 248.4C230.2 248.2 233.1 247.7 236.1 246.1C237.9 245.2 240.6 243.8 242.6 240.9C246.8 234.9 244.6 227.7 243.4 225.1C242.8 223.8 242.2 223 241.2 222.7C239 222.1 236.7 225.2 236.6 225.4C236 226.1 235.7 226.6 235.7 226.6L228.4 248.4Z" fill="#FFA07F"/>
<path fill-rule="evenodd" clip-rule="evenodd" d="M239.662 227.107C240.004 227.308 240.103 227.724 239.883 228.036L235.692 233.99L238.45 239.027C238.631 239.359 238.484 239.763 238.12 239.929C237.757 240.095 237.314 239.96 237.133 239.628L234 233.907L238.644 227.309C238.864 226.996 239.32 226.906 239.662 227.107Z" fill="#FF7D6F"/>
<path d="M312.5 425.3C305.5 430.3 298.2 434.9 290.6 439C275.2 447.3 258.7 453.8 241.2 458C240.2 458.3 239.1 458.5 238.1 458.7C238 458.5 237.8 458.2 237.6 457.9C236.6 455.9 235.3 453 233.8 449.3C233.4 448.3 233 447.3 232.5 446.2C232.2 445.5 232 444.8 231.7 444.1C231.3 442.9 230.8 441.7 230.3 440.5C230 439.8 229.7 439 229.4 438.2C229.4 438.1 229.3 438 229.3 437.8C228.9 436.7 228.5 435.6 228.1 434.5C227.5 432.9 226.9 431.2 226.2 429.5C225.4 427.3 224.6 425 223.7 422.6C221.8 417.3 219.9 411.8 218 406.3C209.5 381.8 201.8 358.2 202 357.5C202 357.5 233.2 346 254.7 338.7C259.6 337 263.9 335.6 267.4 334.6C271.5 333.3 274.2 332.6 274.6 332.9C274.9 333.1 276.2 335.7 278.1 340C279.2 342.5 280.5 345.6 282 349C285.8 358 290.6 369.8 295.5 381.9C295.9 382.8 296.3 383.8 296.6 384.7C296.6 384.8 296.7 384.9 296.7 384.9C302.5 399.4 308.1 413.9 311.8 423.7C312.1 424.2 312.3 424.8 312.5 425.3Z" fill="#F8F8F8"/>
<path d="M278.2 339.9L269.8 343.6L259.8 348L218.8 366L227.3 400.9L227.7 402.5V402.6L228.2 404.8L231.3 417.6L233.5 426.5L234.2 429.4L235.5 434.7L235.7 435.6L236.7 439.6L237.2 441.7L237.4 442.3L238.7 447.5L241 456.9L241.3 458C240.3 458.3 239.2 458.5 238.2 458.7C238.1 458.5 237.9 458.2 237.7 457.9C236.7 455.9 235.4 453 233.9 449.3C233.5 448.3 233.1 447.3 232.6 446.2C232.3 445.5 232.1 444.8 231.8 444.1C231.4 442.9 230.9 441.7 230.4 440.5C230.1 439.8 229.8 439 229.5 438.2C229.5 438.1 229.4 438 229.4 437.8C229 436.7 228.6 435.6 228.2 434.5C227.6 432.9 227 431.2 226.3 429.5C225.5 427.3 224.7 425 223.8 422.6C221.9 417.3 220 411.8 218.1 406.3C209.6 381.8 201.9 358.2 202.1 357.5C202.1 357.5 233.3 346 254.8 338.7C259.7 337 264 335.6 267.5 334.6C271.6 333.3 274.3 332.6 274.7 332.9C275 333 276.3 335.6 278.2 339.9Z" fill="white"/>
<path d="M251.2 386.9C246.9 389 244.4 394 244.7 398.7C245.1 403.4 248.2 407.8 252.5 409.9C255.2 411.2 258.5 411.7 261.2 410.4C263 409.5 264.4 407.9 265.5 406.1C268.1 401.8 269.8 393.7 266.2 389.4C263.2 385.7 255.2 384.9 251.2 386.9Z" fill="#E6F2FF"/>
<path d="M282.5 421.4L267.3 428.7L264.9 433.1C262.8 436 232.3 451.4 230.8 449.8C230.4 449.4 230 448.8 229.6 448.3C229 447.5 228.5 446.7 228.2 446.1C228 445.7 227.8 445.4 227.8 445.4C227.8 445.4 226.7 444.8 225.5 443.9C224.8 443.4 224 442.8 223.5 442.2C222.9 441.6 222.5 440.9 222.6 440.3C222.7 439.7 224.2 438.2 226.3 436.2C231.4 431.5 240.1 424.4 239.3 424.2C238.2 423.9 215.9 434.1 215.9 434.1C215.9 434.1 215.2 433.8 214.5 433.1C214.1 432.7 213.6 432.1 213.3 431.3C212.5 429.2 242.5 410.1 242.5 410.1C236.9 409.3 231.6 406.5 227.8 402.3L227.7 402.2C227.4 401.8 227.1 401.3 227.2 400.9C227.3 400.7 227.5 400.5 227.6 400.3C229.1 399 231.3 398.8 233.3 399.1C235.3 399.4 237.2 400.3 239.1 400.8C242.8 401.9 246.7 401.5 250.5 401.1C257 400.5 264.4 409.7 264.4 409.7C264.4 409.7 272.8 406.3 273.4 406.7C274.6 407.5 275.7 408.4 276.7 409.4C278.4 411.1 279.6 413.1 280.5 414.9C280.6 415.1 280.7 415.4 280.8 415.6C282.1 418.9 282.5 421.4 282.5 421.4Z" fill="#FFA07F"/>
<path d="M225.5 444C226 443.7 226.6 443.3 227.1 442.9C230.3 440.7 232.9 438.4 234.7 436.6C236.4 434.9 237.4 433.7 237.5 433.6C237.3 433.7 236 434.4 233.9 435.6C231.7 436.9 228.8 438.7 225.6 440.8C224.8 441.3 224.1 441.8 223.4 442.3C224 442.9 224.8 443.5 225.5 444Z" fill="#FF7D6F"/>
<path d="M229.6 448.3C234.7 444.9 238.2 441.3 238.5 441.1C238.2 441.2 233.5 442.9 228.2 446.1C228.5 446.6 229 447.5 229.6 448.3Z" fill="#FF7D6F"/>
<path d="M278.4 434.3C278.4 434.3 366.3 410.8 369.6 387.9C373 365 298.8 285.6 284.3 275.5C269.8 265.4 256.5 274.5 256.5 274.5L281.5 329.2C293 344.2 304.5 359.3 316 374.3C299.4 382.4 282.9 390.5 266.3 398.6L276.3 428.1L278.4 434.3Z" fill="#007AFF"/>
<path d="M266.3 398.5L318.7 374.6C318.7 374.6 279.3 325.8 275.1 316.2C275.1 316.2 278.3 329.2 291.2 346.9C304.1 364.6 311.4 372.9 311.4 372.9L266.3 398.5Z" fill="#0371D6"/>
<path d="M166.35 155.55C166.35 164.828 158.828 172.35 149.55 172.35C140.272 172.35 132.75 164.828 132.75 155.55C132.75 146.272 140.272 138.75 149.55 138.75C158.828 138.75 166.35 146.272 166.35 155.55Z" fill="#F8F8F8" stroke="#007AFF" stroke-width="1.5"/>
<path d="M156.245 151C156.245 147.165 152.995 144.045 149.095 144.305C145.65 144.5 142.92 147.36 142.79 150.805C142.725 152.3 143.18 153.73 144.025 154.9C145.13 156.46 145.715 158.41 145.715 160.36V160.425H153.385V160.36C153.385 158.345 154.035 156.395 155.14 154.77C155.855 153.665 156.245 152.365 156.245 151Z" fill="#FFBC00"/>
<path d="M149.16 154.12C148.965 154.055 148.64 153.86 148.51 153.795C148.9 153.405 149.095 152.755 148.835 152.235C148.51 151.325 147.145 151.065 146.82 152.17C146.69 152.755 146.885 153.34 147.34 153.795C147.08 153.86 146.82 153.795 146.56 153.665C145.91 153.34 145.65 152.69 145.52 152.04C145.455 151.715 144.935 151.65 144.935 152.04C145 153.275 145.78 154.51 147.145 154.51C147.405 154.51 147.6 154.445 147.86 154.315C148.055 154.445 148.315 154.575 148.575 154.64V161.01C148.575 161.4 149.16 161.4 149.16 161.01C149.16 161.01 149.355 154.25 149.16 154.12ZM148.25 152.885C148.25 153.145 148.12 153.34 147.99 153.47C147.86 153.34 147.795 153.275 147.665 153.145C147.535 152.95 147.34 152.56 147.47 152.365C147.795 151.585 148.315 152.495 148.25 152.885Z" fill="white"/>
<path d="M149.875 161.01C149.875 161.4 150.46 161.4 150.46 161.01V154.575C150.72 154.51 150.915 154.38 151.175 154.25C151.37 154.38 151.63 154.38 151.89 154.445C153.255 154.445 154.035 153.275 154.1 151.975C154.1 151.585 153.58 151.65 153.515 151.975C153.45 152.625 153.125 153.34 152.475 153.6C152.215 153.73 151.955 153.73 151.695 153.73C152.085 153.275 152.345 152.69 152.215 152.105C151.955 151 150.525 151.325 150.2 152.17C150.005 152.755 150.135 153.34 150.525 153.73C150.33 153.86 150.005 153.99 149.875 154.055C149.745 154.25 149.875 161.01 149.875 161.01ZM151.565 152.3C151.695 152.495 151.5 152.885 151.37 153.08C151.305 153.21 151.175 153.34 151.045 153.405C150.915 153.275 150.785 153.08 150.785 152.82C150.72 152.495 151.24 151.585 151.565 152.3Z" fill="white"/>
<path d="M154.88 160.425H144.22V163.025H154.88V160.425Z" fill="#131313"/>
<path d="M151.76 166.86H147.34C146.495 166.86 145.845 166.21 145.845 165.365V161.725H153.255V165.365C153.255 166.21 152.54 166.86 151.76 166.86Z" fill="#131313"/>
<path d="M156.245 151C156.245 147.165 152.995 144.045 149.095 144.305C145.65 144.5 142.92 147.36 142.79 150.805C142.79 151.195 142.79 151.585 142.855 151.975C143.31 148.855 145.91 146.385 149.095 146.19C149.485 146.19 149.81 146.19 150.135 146.19C150.07 146.385 150.005 146.58 150.005 146.775C150.005 147.23 150.265 147.685 150.59 148.075C151.045 148.595 151.565 148.985 152.15 149.245C152.54 149.44 152.995 149.505 153.385 149.44C153.905 149.375 154.425 148.92 154.62 148.465C155.465 149.44 155.985 150.61 156.18 151.91C156.245 151.65 156.245 151.325 156.245 151Z" fill="#FFD75D"/>
<path d="M354.589 108.425C354.637 97.2405 345.609 88.135 334.425 88.0869C323.241 88.0388 314.135 97.0664 314.087 108.251C314.039 119.435 323.067 128.54 334.251 128.589C345.435 128.637 354.541 119.609 354.589 108.425Z" fill="#131313"/>
<path d="M355.589 105.425C355.637 94.2405 346.609 85.135 335.425 85.0869C324.241 85.0388 315.135 94.0664 315.087 105.251C315.039 116.435 324.067 125.54 335.251 125.589C346.435 125.637 355.541 116.609 355.589 105.425Z" fill="#E6F2FF"/>
<path d="M349.408 105.319C349.408 113.077 343.121 119.364 335.363 119.364C327.606 119.364 321.318 113.077 321.318 105.319C321.318 97.562 327.606 91.2744 335.363 91.2744C343.121 91.2744 349.408 97.562 349.408 105.319Z" fill="#D53F36"/>
<path d="M346.959 105.319C346.959 111.689 341.733 116.915 335.363 116.915C328.994 116.915 323.768 111.689 323.768 105.319C323.768 98.9501 328.994 93.7241 335.363 93.7241C341.733 93.7241 346.959 98.8685 346.959 105.319Z" fill="white"/>
<path d="M344.345 105.319C344.345 110.3 340.344 114.301 335.363 114.301C330.382 114.301 326.381 110.3 326.381 105.319C326.381 100.338 330.382 96.3369 335.363 96.3369C340.344 96.3369 344.345 100.338 344.345 105.319Z" fill="#D53F36"/>
<path d="M341.732 105.319C341.732 108.831 338.874 111.689 335.363 111.689C331.852 111.689 328.994 108.831 328.994 105.319C328.994 101.808 331.852 98.9502 335.363 98.9502C338.874 98.9502 341.732 101.808 341.732 105.319Z" fill="white"/>
<path d="M339.201 105.319C339.201 107.442 337.486 109.157 335.363 109.157C333.24 109.157 331.525 107.442 331.525 105.319C331.525 103.196 333.24 101.481 335.363 101.481C337.486 101.481 339.201 103.196 339.201 105.319Z" fill="#D53F36"/>
<path d="M340.426 110.382V115.445L344.754 119.773V114.71L340.426 110.382Z" fill="#FFBC00"/>
<path d="M340.426 110.382H345.489L349.816 114.71H344.754L340.426 110.382Z" fill="#FFBC00"/>
<path d="M345.897 116.996C345.57 116.996 345.325 116.915 345.08 116.67L334.057 105.728C333.567 105.238 333.567 104.584 334.057 104.095C334.465 103.605 335.2 103.605 335.69 104.095L346.713 115.118C347.203 115.526 347.203 116.261 346.713 116.751C346.468 116.915 346.223 116.996 345.897 116.996Z" fill="#131313"/>
<path d="M36.85 222.8C36.85 233.873 27.8733 242.85 16.8 242.85C5.72669 242.85 -3.25 233.873 -3.25 222.8C-3.25 211.727 5.72669 202.75 16.8 202.75C27.8733 202.75 36.85 211.727 36.85 222.8Z" fill="#F8F8F8" stroke="#007AFF" stroke-width="1.5"/>
<path d="M26.8 209.5H6.70001V236H21.2L26.8 230.6V209.5Z" fill="#B8DAFF"/>
<path d="M21.2 236L26.8 230.6H21.2V236Z" fill="#007AFF"/>
<path d="M23.6 213.3H9.90002V214.9H23.6V213.3Z" fill="#007AFF"/>
<path d="M23.6 216.8H9.90002V218.4H23.6V216.8Z" fill="#007AFF"/>
<path d="M23.6 220.2H9.90002V221.8H23.6V220.2Z" fill="#007AFF"/>
<path d="M23.6 223.6H9.90002V225.2H23.6V223.6Z" fill="#007AFF"/>
<path d="M23.6 227H9.90002V228.6H23.6V227Z" fill="#007AFF"/>
<path d="M113.4 423.601C113.4 436.701 102.8 447.201 89.8 447.201C76.7 447.201 66.2 436.601 66.2 423.601C66.2 410.501 76.8 400.001 89.8 400.001C102.9 399.901 113.4 410.501 113.4 423.601Z" fill="#131313"/>
<path d="M111.2 425.1C111.2 438.2 100.6 448.7 87.6 448.7C74.5 448.7 64 438.1 64 425.1C64 412 74.6 401.5 87.6 401.5C100.6 401.5 111.2 412 111.2 425.1Z" fill="#E6F2FF"/>
<path d="M80.8 426.301C78.2 425.401 76.4 423.801 75.5 421.701C73.8 418.001 75.3 413.901 75.3 413.701L75.7 412.601L81.6 416.001L80.7 417.701L76.7 415.401C76.4 416.701 76.2 418.901 77.1 420.801C77.9 422.501 79.3 423.701 81.4 424.401L80.8 426.301Z" fill="#EC8B1E"/>
<path d="M93.7 426.101C96.3 425.401 98.3 424.001 99.4 421.901C101.4 418.301 100.3 414.101 100.2 413.901L99.9 412.801L93.7 415.701L94.5 417.401L98.6 415.401C98.8 416.701 98.8 418.901 97.7 420.801C96.8 422.401 95.3 423.501 93.1 424.101L93.7 426.101Z" fill="#FFBC00"/>
<path d="M89.4999 436.401C88.1999 437.101 86.9999 437.101 86.1999 437.001C85.4999 436.901 85.0999 436.601 85.0999 436.601C86.3999 435.101 86.4999 426.001 86.4999 426.001L89.8999 425.701C89.6999 426.301 89.6999 427.001 89.5999 427.701C89.3999 431.101 89.4999 436.401 89.4999 436.401Z" fill="#FFBC00"/>
<path d="M89.4999 427.701C87.8999 429.901 85.9999 434.201 86.0999 437.001C85.3999 436.901 84.9999 436.601 84.9999 436.601C86.2999 435.101 86.3999 426.001 86.3999 426.001L89.7999 425.701C89.5999 426.301 89.5999 427.001 89.4999 427.701Z" fill="#EC8B1E"/>
<path d="M94.6 439.301C87.1 443.601 80.2 438.701 80.2 438.701C80.4 438.501 80.6 438.301 80.9 438.201C87.2 433.201 92.1 436.801 93.9 438.501C94.4 439.001 94.6 439.301 94.6 439.301Z" fill="#FFBC00"/>
<path d="M94.6 439.301C87.1 443.601 80.2 438.701 80.2 438.701C80.4 438.501 80.6 438.301 80.9 438.201C82.9 439.301 85.1 440.001 87.6 440.101C89.8 440.101 92 439.601 93.9 438.601C94.4 439.001 94.6 439.301 94.6 439.301Z" fill="#EC8B1E"/>
<path d="M89.9999 439.101C90.5999 439.001 91.0999 438.701 91.2999 438.301C91.4999 437.901 91.1999 437.401 90.8999 437.101C90.1999 436.601 88.9999 436.501 88.0999 436.401C86.9999 436.301 85.7999 436.301 84.7999 436.501C83.0999 436.801 83.0999 438.001 84.6999 438.701C86.2999 439.401 88.1999 439.501 89.9999 439.101Z" fill="#FFCC5E"/>
<path d="M96.7 425.501C96.5 426.401 93 429.201 89.1 429.901C88.6 430.001 88.2 430.001 87.7 430.001C87.6 430.001 87.6 430.001 87.5 430.001C83 430.001 79.6 427.401 79.2 425.601C78.8 423.801 81.2 411.601 81.2 411.601C85.7 410.901 95.3 411.201 95.3 411.201C95.3 411.201 95.4 411.601 95.4 412.301C95.5 413.301 95.7 415.001 95.9 416.801C96.4 420.501 96.8 424.901 96.7 425.501Z" fill="#FFBC00"/>
<path d="M82 413.401C82 413.401 77.3 425.301 87.7 429.901C87.6 429.901 87.6 429.901 87.5 429.901C83 429.901 79.6 427.301 79.2 425.501C78.8 423.701 81.2 411.501 81.2 411.501C85.7 410.801 95.3 411.101 95.3 411.101C95.3 411.101 95.4 411.501 95.4 412.201C93.3 414.501 88.7 417.501 82 413.401Z" fill="#EC8B1E"/>
<path d="M81.2 411.601C81.2 411.601 87.4 406.201 95.3 411.201C95.3 411.201 88.2 415.601 81.2 411.601Z" fill="#FFBC00"/>
<path d="M93.6 411.601C93.6 411.601 92.6 412.101 91.1 412.401C89.5 412.701 87.4 412.901 85.2 412.501C84.5 412.301 83.7 412.101 83 411.801C82.9 411.701 87.6 408.601 93.6 411.601Z" fill="#EC8B1E"/>
<path d="M91.1 412.401C89.5 412.701 87.4 412.901 85.2 412.501C86.6 412.001 88.7 411.701 91.1 412.401Z" fill="#D1730C"/>
<path d="M96.7 425.5C96.5 426.4 93 429.2 89.1 429.9C87.9 428.8 87 427.5 86.2 426C85.7 425.1 85.3 424.2 85.2 423.2C85 421.4 85.8 419.6 87.1 418.3C88.4 417.1 90.2 416.5 91.9 416.3C93.3 416.2 94.6 416.3 95.9 416.8C96.4 420.5 96.8 424.9 96.7 425.5Z" fill="#FFCC5E"/>
<path d="M262 229.073C262 229.073 269.7 228.173 282.1 218.073C280.5 213.673 279.8 208.973 280.2 204.173C281.7 182.873 302.7 167.073 327.2 168.773C351.6 170.473 370.3 189.073 368.8 210.373C367.3 231.673 346.3 247.473 321.8 245.773C310.1 244.973 299.7 240.273 292.2 233.273C284.8 234.673 274.3 234.773 262 229.073Z" fill="#131313"/>
<path d="M262.4 227.373C262.4 227.373 269.9 225.373 280.6 213.573C278.4 209.473 277 204.973 276.6 200.173C274.9 178.973 293.3 160.073 317.7 158.173C342.1 156.173 363.3 171.773 365 193.073C366.7 214.273 348.3 233.173 323.9 235.073C312.2 235.973 301.2 232.873 292.8 227.073C285.8 229.573 275.4 231.273 262.4 227.373Z" fill="#007AFF"/>
<path d="M352.85 182.32C353.071 183.155 353.347 184.389 353.68 186.023C353.996 187.594 354.262 188.79 354.479 189.61C354.536 189.826 354.67 190.271 354.881 190.943C354.935 191.21 354.895 191.436 354.762 191.62C354.625 191.789 354.44 191.904 354.208 191.965C353.96 192.031 353.72 192.028 353.486 191.957C353.252 191.887 353.085 191.757 352.986 191.568C352.465 190.349 351.971 188.857 351.505 187.094L350.572 183.468C350.42 182.896 350.367 182.413 350.413 182.021C350.469 181.609 350.745 181.337 351.24 181.206C351.658 181.096 352.004 181.153 352.278 181.379C352.549 181.588 352.74 181.902 352.85 182.32ZM354.411 193.202C355.463 192.924 356.093 193.18 356.301 193.969C356.408 194.371 356.374 194.777 356.201 195.187C356.04 195.577 355.765 195.823 355.379 195.925C354.915 196.048 354.499 196.009 354.131 195.808C353.76 195.592 353.523 195.291 353.421 194.904C353.331 194.564 353.373 194.221 353.547 193.878C353.736 193.53 354.024 193.305 354.411 193.202Z" fill="white"/>
<path d="M350.289 189.426C350.47 189.61 350.655 189.9 350.842 190.297C351.026 190.679 351.161 191.032 351.247 191.357C351.357 191.775 351.433 192.251 351.475 192.786C351.518 193.321 351.537 193.738 351.533 194.037C350.981 196.268 349.661 197.66 347.572 198.212C346.799 198.416 345.943 198.369 345.003 198.072C344.064 197.774 343.352 197.333 342.867 196.75C342.101 195.545 341.67 194.757 341.572 194.386C341.408 193.767 341.366 193.075 341.445 192.31C341.539 191.54 341.728 190.845 342.01 190.224C342.195 189.794 342.595 189.366 343.21 188.939C343.821 188.496 344.405 188.201 344.962 188.054C346.045 187.767 347.013 187.735 347.865 187.956C348.73 188.158 349.538 188.648 350.289 189.426ZM349.258 193.695C349.295 193.52 349.196 192.991 348.963 192.11C348.845 191.661 348.643 191.243 348.358 190.855C348.089 190.462 347.759 190.152 347.368 189.925C347.329 189.902 347.231 189.878 347.076 189.853C346.916 189.813 346.704 189.794 346.441 189.798C346.188 189.782 345.907 189.814 345.598 189.896C344.732 190.125 344.189 190.641 343.971 191.443C343.753 192.246 343.76 193.088 343.993 193.969C344.03 194.109 344.152 194.383 344.36 194.791C344.567 195.2 344.71 195.46 344.789 195.571C344.97 195.755 345.285 195.945 345.734 196.141C346.194 196.317 346.649 196.346 347.097 196.227C347.794 196.043 348.3 195.736 348.616 195.304C348.944 194.854 349.158 194.317 349.258 193.695Z" fill="white"/>
<path d="M334.26 201.259C334.091 201.055 333.965 200.799 333.883 200.49C333.806 200.196 333.906 199.698 334.183 198.995C333.375 198.944 332.671 198.659 332.07 198.139C331.485 197.615 331.08 196.928 330.855 196.077C330.708 195.52 330.706 194.983 330.851 194.464C330.991 193.931 331.238 193.394 331.592 192.854C332.193 191.934 333.189 191.29 334.581 190.922C335.138 190.774 335.859 190.716 336.745 190.747C337.498 189.654 338.246 189.009 338.989 188.813C339.453 188.691 339.81 188.695 340.06 188.828C340.322 188.941 340.51 189.214 340.624 189.647C340.669 189.817 340.643 189.998 340.544 190.189C340.457 190.361 340.313 190.474 340.112 190.527L339.271 190.725C338.745 190.864 338.392 191.064 338.214 191.327C338.601 191.605 338.962 191.998 339.295 192.506C339.643 193.009 339.911 193.617 340.099 194.329C340.349 195.272 339.932 196.326 338.849 197.489C338.159 198.135 337.283 198.606 336.22 198.904C336.129 199.06 336.051 199.205 335.987 199.338C335.934 199.451 335.916 199.539 335.932 199.601C335.977 199.771 336.159 199.863 336.477 199.878C336.796 199.894 337.263 199.845 337.878 199.732C338.335 199.644 338.864 199.612 339.466 199.635C340.079 199.638 340.575 199.697 340.953 199.813C341.433 200 341.795 200.244 342.04 200.543C342.3 200.838 342.497 201.241 342.632 201.752C342.808 202.417 342.646 203.056 342.146 203.668C341.665 204.291 341.043 204.82 340.281 205.253C339.518 205.686 338.828 205.985 338.209 206.148C337.466 206.344 336.808 206.419 336.233 206.373C335.677 206.337 335.127 206.226 334.581 206.04C334.195 205.894 333.862 205.667 333.582 205.36C333.302 205.054 333.111 204.707 333.009 204.32C332.927 204.011 333.049 203.532 333.374 202.883C333.715 202.231 334.083 201.744 334.478 201.425C334.419 201.391 334.347 201.335 334.26 201.259ZM335.647 197.02C336.374 196.828 336.934 196.473 337.327 195.955C337.716 195.422 337.818 194.808 337.634 194.111C337.487 193.555 337.208 193.157 336.797 192.918C336.382 192.663 335.881 192.614 335.293 192.769C334.071 193.092 333.346 193.573 333.118 194.213C333.058 194.361 333.028 194.625 333.03 195.006C333.027 195.371 333.05 195.646 333.099 195.831C333.168 196.094 333.333 196.341 333.592 196.57C333.863 196.78 334.185 196.935 334.559 197.034C334.929 197.119 335.291 197.114 335.647 197.02ZM335.233 203.906C335.303 204.169 335.602 204.33 336.13 204.389C336.678 204.459 337.231 204.421 337.788 204.273C338.407 204.11 339.01 203.826 339.598 203.423C340.206 203.03 340.461 202.648 340.363 202.277C340.22 201.736 339.649 201.514 338.649 201.613C337.548 201.706 336.675 201.754 336.031 201.759C336.026 201.992 335.891 202.325 335.625 202.76C335.455 203.053 335.331 203.276 335.256 203.428C335.2 203.592 335.192 203.751 335.233 203.906Z" fill="white"/>
<path d="M325.024 198.71C325.169 198.755 325.447 198.839 325.86 198.961C326.285 199.064 326.595 199.238 326.793 199.484C326.99 199.73 327.154 200.1 327.285 200.595C327.432 201.152 327.401 201.69 327.19 202.209C326.976 202.713 326.644 203.148 326.195 203.515C325.88 203.764 325.518 203.959 325.108 204.1C324.714 204.237 324.231 204.381 323.659 204.533C323.349 204.614 322.935 204.674 322.415 204.712C321.911 204.746 321.556 204.749 321.35 204.721C320.782 204.573 320.278 204.359 319.84 204.078C319.401 203.796 319.131 203.462 319.029 203.075C318.947 202.766 318.982 202.492 319.134 202.253C319.286 202.014 319.525 201.852 319.849 201.766C320.02 201.721 320.194 201.725 320.373 201.777C320.564 201.809 320.705 201.871 320.795 201.963C321.072 202.32 321.437 202.546 321.893 202.641C322.348 202.736 322.785 202.728 323.202 202.618C324.672 202.229 325.337 201.772 325.198 201.246C325.161 201.107 325.094 201.009 324.996 200.952C324.91 200.876 324.792 200.807 324.644 200.747C324.406 200.661 324.081 200.59 323.669 200.533C323.272 200.473 322.925 200.44 322.626 200.437C321.955 200.465 321.281 200.42 320.604 200.301C319.974 200.17 319.421 199.927 318.947 199.572C318.468 199.202 318.141 198.684 317.965 198.019C317.859 197.617 317.902 197.184 318.093 196.719C318.297 196.235 318.573 195.84 318.922 195.532C319.171 195.351 319.597 195.114 320.199 194.823C320.8 194.531 321.217 194.355 321.449 194.293C321.805 194.199 322.202 194.136 322.64 194.103C323.074 194.054 323.419 194.079 323.677 194.176C324.16 194.313 324.57 194.486 324.906 194.695C325.239 194.889 325.45 195.156 325.54 195.496C325.585 195.666 325.595 195.862 325.571 196.083C325.543 196.29 325.481 196.43 325.385 196.505C325.181 196.675 324.925 196.8 324.616 196.882C324.476 196.919 324.35 196.911 324.237 196.858C324.139 196.801 323.998 196.706 323.814 196.573C323.574 196.355 323.371 196.243 323.204 196.237C323.006 196.24 322.721 196.258 322.349 196.29C321.973 196.306 321.723 196.331 321.599 196.364C321.212 196.466 320.861 196.642 320.547 196.89C320.247 197.135 320.132 197.389 320.202 197.652C320.283 197.961 320.608 198.157 321.176 198.238C321.542 198.307 321.932 198.344 322.347 198.351C322.778 198.352 323.044 198.357 323.145 198.363C323.374 198.352 323.681 198.387 324.066 198.467C324.467 198.543 324.786 198.624 325.024 198.71Z" fill="white"/>
<path d="M314.16 193.614C313.99 193.659 313.858 193.66 313.765 193.619C313.531 193.548 313.322 193.446 313.138 193.313C312.969 193.175 312.842 192.944 312.756 192.619C312.71 192.383 312.711 192.168 312.759 191.973C312.802 191.763 312.899 191.597 313.049 191.475C313.329 191.219 313.724 191.023 314.234 190.888C314.606 190.79 314.929 190.854 315.203 191.079C315.489 191.285 315.684 191.581 315.786 191.968C315.908 192.432 315.912 193.01 315.797 193.702C315.694 194.375 315.556 194.916 315.383 195.326C315.243 195.611 315.072 195.872 314.869 196.107C314.667 196.343 314.473 196.485 314.287 196.534C313.916 196.632 313.669 196.639 313.548 196.556C313.438 196.452 313.344 196.254 313.266 195.96C313.234 195.836 313.345 195.6 313.6 195.251C313.802 194.949 313.921 194.744 313.959 194.635C314.109 194.264 314.199 193.918 314.23 193.595L314.16 193.614Z" fill="white"/>
<path d="M307.304 200.167C307.079 200.194 306.877 200.148 306.697 200.03C306.532 199.908 306.421 199.739 306.364 199.522C306.335 199.414 306.328 199.292 306.342 199.156C306.371 199.016 306.427 198.885 306.511 198.763C306.659 198.509 307.174 198.265 308.056 198.032C308.02 197.396 307.92 196.769 307.757 196.15C307.695 195.918 307.634 195.719 307.574 195.553C307.514 195.387 307.471 195.258 307.447 195.165C307.357 194.824 307.413 194.537 307.615 194.301C307.833 194.061 308.105 193.899 308.43 193.813C308.832 193.706 309.129 193.735 309.321 193.9C309.529 194.06 309.705 194.411 309.848 194.952C310.061 195.756 310.199 196.564 310.265 197.374C310.512 197.309 310.848 197.203 311.273 197.058C311.853 196.871 312.274 196.743 312.537 196.674C312.8 196.604 313.043 196.615 313.265 196.705C313.499 196.776 313.647 196.927 313.708 197.159C313.867 197.762 313.691 198.19 313.178 198.441C312.642 198.731 311.775 199.052 310.577 199.401C310.69 200.017 310.841 200.681 311.029 201.392C311.323 202.506 311.634 203.4 311.961 204.075C312.185 204.545 312.436 204.868 312.714 205.043C313.003 205.198 313.372 205.216 313.82 205.098C314.083 205.028 314.336 204.887 314.577 204.674C314.734 204.517 314.89 204.418 315.045 204.377C315.261 204.32 315.435 204.348 315.564 204.463C315.709 204.574 315.812 204.745 315.874 204.977C315.988 205.41 315.852 205.835 315.466 206.252C315.075 206.653 314.517 206.949 313.79 207.141C313.341 207.26 312.856 207.272 312.335 207.178C311.829 207.08 311.378 206.91 310.983 206.667C310.925 206.633 310.792 206.477 310.587 206.201C310.381 205.924 310.185 205.62 309.998 205.289C309.652 204.603 309.304 203.602 308.957 202.287C308.805 201.715 308.634 200.941 308.442 199.966L307.304 200.167Z" fill="white"/>
<path d="M298.275 205.88C298.119 205.292 298.072 204.676 298.133 204.031C298.191 203.37 298.332 202.745 298.556 202.156C298.781 201.567 299.24 201.016 299.931 200.502C300.619 199.973 301.264 199.629 301.868 199.469C302.486 199.306 303.135 199.225 303.815 199.228C304.509 199.226 305.027 199.37 305.369 199.661C306.154 200.314 306.649 201.027 306.853 201.801C306.963 202.218 306.965 202.598 306.857 202.941C306.764 203.28 306.601 203.663 306.366 204.089C306.176 204.437 305.808 204.733 305.26 204.977C304.728 205.217 304.183 205.411 303.626 205.558C303.27 205.652 302.829 205.735 302.302 205.809C301.771 205.866 301.252 205.904 300.744 205.923C300.856 206.224 301.013 206.505 301.215 206.766C301.416 207.027 301.622 207.213 301.833 207.323C302.221 207.535 302.587 207.636 302.932 207.628C303.293 207.615 303.736 207.54 304.262 207.401C304.819 207.253 305.313 207.024 305.743 206.711C306.093 206.47 306.392 206.316 306.639 206.251C306.933 206.173 307.182 206.207 307.386 206.351C307.585 206.481 307.722 206.685 307.796 206.963C307.898 207.35 307.757 207.726 307.374 208.092C306.991 208.458 306.522 208.781 305.967 209.06C305.423 209.32 304.973 209.496 304.617 209.59C303.89 209.783 303.152 209.837 302.402 209.754C301.652 209.671 300.989 209.449 300.413 209.088C299.928 208.753 299.497 208.313 299.121 207.766C298.741 207.205 298.459 206.576 298.275 205.88ZM302.505 201.411C302.165 201.501 301.843 201.66 301.539 201.889C301.232 202.103 301 202.355 300.845 202.644C300.644 203.011 300.514 203.302 300.455 203.516C300.407 203.711 300.409 203.967 300.46 204.285C300.879 204.306 301.7 204.156 302.922 203.833C303.587 203.657 304.071 203.421 304.373 203.126C304.692 202.827 304.808 202.515 304.722 202.19C304.636 201.865 304.357 201.624 303.885 201.468C303.414 201.311 302.954 201.292 302.505 201.411Z" fill="white"/>
<path d="M287.168 198.316C287.462 198.238 287.745 198.246 288.018 198.339C288.306 198.428 288.525 198.66 288.673 199.035C289.182 200.208 289.621 201.399 289.99 202.609C290.371 203.799 290.764 205.16 291.169 206.691C291.341 207.341 291.599 208.539 291.945 210.284C292.642 210.166 293.176 210.058 293.547 209.96C293.81 209.89 294.395 209.694 295.303 209.372C295.824 209.151 296.286 208.988 296.688 208.882C297.059 208.783 297.41 208.732 297.739 208.728C298.065 208.708 298.411 208.732 298.777 208.801C299.15 208.901 299.389 209.144 299.491 209.531C299.573 209.84 299.546 210.145 299.41 210.446C299.29 210.742 299.098 210.926 298.835 210.995C298.65 211.044 298.347 211.091 297.929 211.135C297.173 211.219 296.463 211.349 295.798 211.525C295.581 211.582 295.338 211.663 295.067 211.767C294.809 211.852 294.617 211.911 294.494 211.944C294.135 212.089 293.769 212.21 293.398 212.308C292.64 212.508 291.949 212.65 291.326 212.732C291.008 212.783 290.668 212.748 290.305 212.629C289.939 212.494 289.702 212.226 289.596 211.823C289.535 211.591 289.408 210.988 289.217 210.012C288.904 208.39 288.637 207.162 288.416 206.326C288.244 205.677 288.034 205.004 287.784 204.309C287.534 203.614 287.377 203.176 287.312 202.994C286.825 201.716 286.469 200.652 286.245 199.801C286.138 199.399 286.153 199.08 286.29 198.845C286.442 198.607 286.735 198.43 287.168 198.316Z" fill="white"/>
</svg>
